<svg width="48" height="48" viewBox="0 0 48 48" fill="none" xmlns="http://www.w3.org/2000/svg">
<path d="M24 -1.04907e-06C10.7452 -1.62846e-06 1.62846e-06 10.7452 1.04907e-06 24C4.69686e-07 37.2548 10.7452 48 24 48C37.2548 48 48 37.2548 48 24C48 10.7452 37.2548 -4.69686e-07 24 -1.04907e-06ZM24 46.08C11.8056 46.08 1.92 36.1944 1.92 24C1.92 11.8056 11.8056 1.92 24 1.92C36.1944 1.92 46.08 11.8056 46.08 24C46.08 36.1944 36.1944 46.08 24 46.08Z" fill="#334F8B"/>
<path d="M26.0332 18.72L21.6865 23.0667C21.1732 23.58 21.1732 24.42 21.6865 24.9334L26.0332 29.28" stroke="#334F8B" stroke-width="2" stroke-miterlimit="10" stroke-linecap="round" stroke-linejoin="round"/>
</svg>
