<svg width="48" height="48" viewBox="0 0 48 48" fill="none" xmlns="http://www.w3.org/2000/svg">
<path d="M24 -1.04907e-06C37.2548 -1.62846e-06 48 10.7452 48 24C48 37.2548 37.2548 48 24 48C10.7452 48 -4.69686e-07 37.2548 -1.04907e-06 24C-1.62846e-06 10.7452 10.7452 -4.69686e-07 24 -1.04907e-06ZM24 46.08C36.1944 46.08 46.08 36.1944 46.08 24C46.08 11.8056 36.1944 1.92 24 1.92C11.8056 1.92 1.92 11.8056 1.92 24C1.92 36.1944 11.8056 46.08 24 46.08Z" fill="#334F8B"/>
<path d="M21.9668 18.72L26.3135 23.0667C26.8268 23.58 26.8268 24.42 26.3135 24.9334L21.9668 29.28" stroke="#334F8B" stroke-width="2" stroke-miterlimit="10" stroke-linecap="round" stroke-linejoin="round"/>
</svg>
