<svg width="52" height="52" viewBox="0 0 52 52" fill="none" xmlns="http://www.w3.org/2000/svg">
<rect width="52" height="52" rx="26" fill="#19BBCD"/>
<g clip-path="url(#clip0_5470:1865)">
<path d="M24.6066 18.5867L21.9999 21.1667C21.9374 21.2286 21.8879 21.3024 21.854 21.3836C21.8202 21.4649 21.8027 21.552 21.8027 21.64C21.8027 21.728 21.8202 21.8151 21.854 21.8964C21.8879 21.9776 21.9374 22.0514 21.9999 22.1133C22.1248 22.2375 22.2938 22.3072 22.4699 22.3072C22.6461 22.3072 22.815 22.2375 22.9399 22.1133L25.3333 19.74L25.3333 33.3333C25.3333 33.5101 25.4035 33.6797 25.5285 33.8047C25.6536 33.9298 25.8231 34 25.9999 34V34C26.1767 34 26.3463 33.9298 26.4713 33.8047C26.5964 33.6797 26.6666 33.5101 26.6666 33.3333L26.6666 19.7L29.0733 22.1133C29.1352 22.1758 29.209 22.2254 29.2902 22.2593C29.3715 22.2931 29.4586 22.3105 29.5466 22.3105C29.6346 22.3105 29.7217 22.2931 29.803 22.2593C29.8842 22.2254 29.958 22.1758 30.0199 22.1133C30.0824 22.0514 30.132 21.9776 30.1659 21.8964C30.1997 21.8151 30.2171 21.728 30.2171 21.64C30.2171 21.552 30.1997 21.4649 30.1659 21.3836C30.132 21.3024 30.0824 21.2286 30.0199 21.1667L27.4333 18.5867C27.0583 18.2121 26.5499 18.0018 26.0199 18.0018C25.4899 18.0018 24.9816 18.2121 24.6066 18.5867Z" fill="white"/>
</g>
<defs>
<clipPath id="clip0_5470:1865">
<rect width="16" height="16" fill="white" transform="translate(18 34) rotate(-90)"/>
</clipPath>
</defs>
</svg>
