<svg width="30" height="26" viewBox="0 0 30 26" fill="none" xmlns="http://www.w3.org/2000/svg">
<path d="M6.72553 0C8.4861 0 10.0548 0.801329 11.4429 2.41482C12.8311 4.01749 13.5195 6.13994 13.5195 8.78218C13.5195 11.0237 12.2555 14.4565 9.73881 19.0696C7.21082 23.6935 5.33739 26 4.10724 26C3.41882 26 3.06896 25.6535 3.06896 24.9713C3.06896 24.7872 3.79125 23.2928 5.22453 20.4773C6.6691 17.6618 7.38011 15.4527 7.38011 13.8717C7.38011 12.6481 6.56754 11.641 4.93111 10.8613C3.30597 10.0816 2.21126 9.26947 1.66955 8.42482C1.12783 7.58018 0.856974 6.65973 0.856974 5.68513C0.856974 3.92003 1.39869 2.52311 2.48212 1.51603C3.5994 0.508947 4.99882 0 6.72553 0Z" fill="#19BBCD"/>
<path d="M22.9306 0C24.6912 0 26.2712 0.801329 27.6481 2.41482C29.0362 4.01749 29.7246 6.13994 29.7246 8.78218C29.7246 11.0237 28.4606 14.4565 25.9439 19.0696C23.4272 23.6935 21.5425 26 20.3237 26C19.6352 26 19.2854 25.6535 19.2854 24.9713C19.2854 24.7872 20.0077 23.2928 21.4409 20.4773C22.8855 17.6618 23.5965 15.4527 23.5965 13.8717C23.5965 12.6481 22.7839 11.641 21.1475 10.8613C19.5224 10.0816 18.4277 9.26947 17.886 8.42482C17.3442 7.58018 17.0734 6.65973 17.0734 5.68513C17.0734 3.92003 17.6151 2.52311 18.6985 1.51603C19.7819 0.508947 21.2039 0 22.9306 0Z" fill="#19BBCD"/>
</svg>
