<svg width="19" height="19" viewBox="0 0 19 19" fill="none" xmlns="http://www.w3.org/2000/svg">
<path d="M17.3926 14.5112C17.3926 14.7962 17.3293 15.0891 17.1947 15.3741C17.0601 15.6591 16.8859 15.9283 16.6563 16.1816C16.2684 16.6091 15.8409 16.9179 15.358 17.1158C14.883 17.3137 14.3684 17.4166 13.8143 17.4166C13.0068 17.4166 12.1438 17.2266 11.2334 16.8387C10.323 16.4508 9.41259 15.9283 8.51009 15.2712C7.59967 14.6062 6.73676 13.87 5.91342 13.0546C5.09801 12.2312 4.36176 11.3683 3.70467 10.4658C3.05551 9.56331 2.53301 8.66081 2.15301 7.76623C1.77301 6.86373 1.58301 6.00081 1.58301 5.17748C1.58301 4.63915 1.67801 4.12456 1.86801 3.64956C2.05801 3.16665 2.35884 2.72331 2.77842 2.32748C3.28509 1.82873 3.83926 1.58331 4.42509 1.58331C4.64676 1.58331 4.86842 1.63081 5.06634 1.72581C5.27217 1.82081 5.45426 1.96331 5.59676 2.16915L7.43342 4.7579C7.57592 4.95581 7.67884 5.1379 7.75009 5.31206C7.82134 5.47831 7.86092 5.64456 7.86092 5.79498C7.86092 5.98498 7.80551 6.17498 7.69467 6.35706C7.59176 6.53915 7.44134 6.72915 7.25134 6.91915L6.64967 7.54456C6.56259 7.63165 6.52301 7.73456 6.52301 7.86123C6.52301 7.92456 6.53092 7.97998 6.54676 8.04331C6.57051 8.10665 6.59426 8.15415 6.61009 8.20165C6.75259 8.4629 6.99801 8.80331 7.34634 9.21498C7.70259 9.62665 8.08259 10.0462 8.49426 10.4658C8.92176 10.8854 9.33342 11.2733 9.75301 11.6296C10.1647 11.9779 10.5051 12.2154 10.7743 12.3579C10.8138 12.3737 10.8613 12.3975 10.9168 12.4212C10.9801 12.445 11.0434 12.4529 11.1147 12.4529C11.2493 12.4529 11.3522 12.4054 11.4393 12.3183L12.0409 11.7246C12.2388 11.5266 12.4288 11.3762 12.6109 11.2812C12.793 11.1704 12.9751 11.115 13.173 11.115C13.3234 11.115 13.4818 11.1466 13.6559 11.2179C13.8301 11.2891 14.0122 11.3921 14.2101 11.5266L16.8305 13.3871C17.0363 13.5296 17.1788 13.6958 17.2659 13.8937C17.3451 14.0916 17.3926 14.2896 17.3926 14.5112Z" stroke="#909DBC" stroke-width="1.5" stroke-miterlimit="10"/>
</svg>
