<svg width="83" height="82" viewBox="0 0 83 82" fill="none" xmlns="http://www.w3.org/2000/svg">
<circle cx="41.7246" cy="41" r="41" fill="#C4C4C4"/>
<path d="M33.5927 28C35.3533 28 36.922 28.8013 38.3101 30.4148C39.6983 32.0175 40.3867 34.1399 40.3867 36.7822C40.3867 39.0237 39.1227 42.4565 36.606 47.0696C34.078 51.6935 32.2046 54 30.9744 54C30.286 54 29.9361 53.6535 29.9361 52.9713C29.9361 52.7872 30.6584 51.2928 32.0917 48.4773C33.5363 45.6618 34.2473 43.4527 34.2473 41.8717C34.2473 40.6481 33.4347 39.641 31.7983 38.8613C30.1732 38.0816 29.0784 37.2695 28.5367 36.4248C27.995 35.5802 27.7242 34.6597 27.7242 33.6851C27.7242 31.92 28.2659 30.5231 29.3493 29.516C30.4666 28.5089 31.866 28 33.5927 28Z" fill="#19BBCD"/>
<path d="M49.7978 28C51.5584 28 53.1384 28.8013 54.5152 30.4148C55.9034 32.0175 56.5918 34.1399 56.5918 36.7822C56.5918 39.0237 55.3278 42.4565 52.8111 47.0696C50.2944 51.6935 48.4097 54 47.1908 54C46.5024 54 46.1526 53.6535 46.1526 52.9713C46.1526 52.7872 46.8748 51.2928 48.3081 48.4773C49.7527 45.6618 50.4637 43.4527 50.4637 41.8717C50.4637 40.6481 49.6511 39.641 48.0147 38.8613C46.3896 38.0816 45.2949 37.2695 44.7531 36.4248C44.2114 35.5802 43.9406 34.6597 43.9406 33.6851C43.9406 31.92 44.4823 30.5231 45.5657 29.516C46.6491 28.5089 48.0711 28 49.7978 28Z" fill="#19BBCD"/>
</svg>
