<svg width="595" height="618" viewBox="0 0 595 618" fill="none" xmlns="http://www.w3.org/2000/svg">
<g filter="url(#filter0_d_4918:2983)">
<rect x="60" y="30" width="475" height="498" fill="white"/>
</g>
<path d="M247.114 93.44C247.114 92.502 246.792 91.69 246.148 91.032C245.518 90.374 244.552 90.038 243.278 90.038H239.4V101H241.122V96.94H243.068C244.342 96.94 245.322 96.604 246.036 95.946C246.75 95.274 247.114 94.434 247.114 93.44ZM243.124 91.634C243.936 91.634 244.51 91.816 244.846 92.18C245.196 92.544 245.364 92.978 245.364 93.482C245.364 94.49 244.65 95.358 243.124 95.358H241.122V91.634H243.124ZM252.742 95.932C252.742 96.352 252.504 96.562 252.042 96.562H251.118C249.802 96.562 248.01 97.108 248.01 98.844V98.928C248.01 99.572 248.248 100.104 248.724 100.51C249.2 100.916 249.802 101.126 250.53 101.126C251.538 101.126 252.266 100.748 252.728 99.978V101H254.366V96.24C254.366 95.722 254.282 95.274 254.114 94.896C253.652 93.874 252.714 93.37 251.314 93.37C249.788 93.37 248.724 94 248.136 95.274L249.41 96.002C249.788 95.204 250.418 94.812 251.272 94.812C252.21 94.812 252.742 95.316 252.742 95.932ZM252.728 97.976C252.728 99.096 252 99.796 250.866 99.796C250.152 99.796 249.676 99.39 249.676 98.774C249.676 98.452 249.83 98.2 250.124 98.018C250.432 97.836 250.768 97.738 251.118 97.738H252.728V97.976ZM260.53 95.022V93.524H258.696V91.214H257.03V93.524H255.658V95.022H257.03V98.592C257.03 100.216 257.982 101.084 259.62 101.084C259.942 101.084 260.25 101.028 260.516 100.93V99.516C260.334 99.558 260.152 99.572 259.984 99.572C259.13 99.572 258.696 99.222 258.696 98.326V95.022H260.53ZM262.336 91.872C262.77 92.306 263.442 92.306 263.876 91.872C264.31 91.438 264.31 90.766 263.876 90.332C263.442 89.884 262.77 89.884 262.336 90.332C261.902 90.766 261.902 91.438 262.336 91.872ZM263.946 93.524H262.28V101H263.946V93.524ZM273.051 97.752C273.065 97.626 273.079 97.458 273.079 97.234C273.079 96.072 272.757 95.148 272.113 94.434C271.469 93.72 270.573 93.37 269.439 93.37C268.361 93.37 267.465 93.748 266.751 94.504C266.037 95.26 265.673 96.17 265.673 97.248C265.673 98.354 266.051 99.292 266.793 100.034C267.549 100.776 268.487 101.14 269.593 101.14C270.937 101.14 272.155 100.496 272.785 99.334L271.581 98.536C271.175 99.306 270.503 99.698 269.565 99.698C268.991 99.698 268.487 99.516 268.053 99.152C267.619 98.774 267.395 98.312 267.381 97.752H273.051ZM269.439 94.798C270.503 94.798 271.329 95.442 271.385 96.492H267.465C267.619 95.47 268.417 94.798 269.439 94.798ZM281.496 101V96.394C281.496 94.602 280.53 93.37 278.696 93.37C277.744 93.37 276.988 93.762 276.414 94.532V93.524H274.79V101H276.456V96.842C276.456 95.708 277.128 94.952 278.178 94.952C279.284 94.952 279.83 95.694 279.83 96.814V101H281.496ZM287.723 95.022V93.524H285.889V91.214H284.223V93.524H282.851V95.022H284.223V98.592C284.223 100.216 285.175 101.084 286.813 101.084C287.135 101.084 287.443 101.028 287.709 100.93V99.516C287.527 99.558 287.345 99.572 287.177 99.572C286.323 99.572 285.889 99.222 285.889 98.326V95.022H287.723ZM293.445 101H295.167V96.842H297.253L299.633 101H301.579L298.975 96.548C300.445 96.058 301.299 94.938 301.299 93.412C301.299 92.446 300.991 91.648 300.389 91.004C299.787 90.36 298.835 90.038 297.561 90.038H293.445V101ZM295.167 91.634H297.379C299.171 91.634 299.549 92.614 299.549 93.454C299.549 94.462 298.905 95.288 297.379 95.288H295.167V91.634ZM309.924 97.752C309.938 97.626 309.952 97.458 309.952 97.234C309.952 96.072 309.63 95.148 308.986 94.434C308.342 93.72 307.446 93.37 306.312 93.37C305.234 93.37 304.338 93.748 303.624 94.504C302.91 95.26 302.546 96.17 302.546 97.248C302.546 98.354 302.924 99.292 303.666 100.034C304.422 100.776 305.36 101.14 306.466 101.14C307.81 101.14 309.028 100.496 309.658 99.334L308.454 98.536C308.048 99.306 307.376 99.698 306.438 99.698C305.864 99.698 305.36 99.516 304.926 99.152C304.492 98.774 304.268 98.312 304.254 97.752H309.924ZM306.312 94.798C307.376 94.798 308.202 95.442 308.258 96.492H304.338C304.492 95.47 305.29 94.798 306.312 94.798ZM314.785 101.056C315.177 101.056 315.611 100.958 316.101 100.748C316.591 100.538 316.969 100.23 317.235 99.796V100.972C317.235 102.47 316.269 103.254 314.967 103.254C313.917 103.254 313.133 102.722 312.615 101.672L311.229 102.47C311.915 103.982 313.175 104.738 314.995 104.738C316.171 104.738 317.109 104.388 317.823 103.702C318.537 103.016 318.901 102.078 318.901 100.902V93.524H317.277V94.658C317.011 94.238 316.633 93.93 316.157 93.72C315.681 93.51 315.247 93.398 314.841 93.398C313.735 93.398 312.839 93.79 312.153 94.574C311.481 95.358 311.145 96.24 311.145 97.234C311.145 98.27 311.481 99.166 312.167 99.922C312.853 100.678 313.735 101.056 314.785 101.056ZM317.263 97.206C317.263 97.864 317.053 98.424 316.633 98.886C316.227 99.334 315.695 99.558 315.037 99.558C314.379 99.558 313.847 99.334 313.427 98.886C313.021 98.424 312.811 97.864 312.811 97.206C312.811 96.548 313.021 95.988 313.427 95.554C313.833 95.106 314.379 94.882 315.037 94.882C315.695 94.882 316.241 95.106 316.647 95.554C317.053 96.002 317.263 96.548 317.263 97.206ZM321.194 91.872C321.628 92.306 322.3 92.306 322.734 91.872C323.168 91.438 323.168 90.766 322.734 90.332C322.3 89.884 321.628 89.884 321.194 90.332C320.76 90.766 320.76 91.438 321.194 91.872ZM322.804 93.524H321.138V101H322.804V93.524ZM327.456 101.126C328.296 101.126 328.982 100.916 329.5 100.482C330.018 100.048 330.284 99.488 330.284 98.802C330.284 97.64 329.388 96.828 327.694 96.45C326.728 96.24 326.308 95.988 326.308 95.498C326.308 95.092 326.84 94.77 327.358 94.77C328.072 94.77 328.59 95.106 328.926 95.778L330.214 95.05C329.696 93.93 328.758 93.37 327.414 93.37C326.686 93.37 326.056 93.58 325.51 94.014C324.964 94.448 324.698 94.994 324.698 95.666C324.698 96.198 324.88 96.646 325.23 97.024C325.636 97.458 326.266 97.752 327.092 97.92C328.114 98.13 328.632 98.466 328.632 98.9C328.632 99.404 328.086 99.726 327.456 99.726C326.658 99.726 326.07 99.32 325.664 98.522L324.362 99.25C324.936 100.496 325.972 101.126 327.456 101.126ZM336.026 95.022V93.524H334.192V91.214H332.526V93.524H331.154V95.022H332.526V98.592C332.526 100.216 333.478 101.084 335.116 101.084C335.438 101.084 335.746 101.028 336.012 100.93V99.516C335.83 99.558 335.648 99.572 335.48 99.572C334.626 99.572 334.192 99.222 334.192 98.326V95.022H336.026ZM341.864 93.496C341.766 93.468 341.64 93.454 341.458 93.454C340.548 93.454 339.862 93.874 339.4 94.714V93.524H337.776V101H339.442V97.206C339.442 95.904 340.114 95.162 341.388 95.162C341.57 95.162 341.724 95.176 341.864 95.204V93.496ZM347.406 95.932C347.406 96.352 347.168 96.562 346.706 96.562H345.782C344.466 96.562 342.674 97.108 342.674 98.844V98.928C342.674 99.572 342.912 100.104 343.388 100.51C343.864 100.916 344.466 101.126 345.194 101.126C346.202 101.126 346.93 100.748 347.392 99.978V101H349.03V96.24C349.03 95.722 348.946 95.274 348.778 94.896C348.316 93.874 347.378 93.37 345.978 93.37C344.452 93.37 343.388 94 342.8 95.274L344.074 96.002C344.452 95.204 345.082 94.812 345.936 94.812C346.874 94.812 347.406 95.316 347.406 95.932ZM347.392 97.976C347.392 99.096 346.664 99.796 345.53 99.796C344.816 99.796 344.34 99.39 344.34 98.774C344.34 98.452 344.494 98.2 344.788 98.018C345.096 97.836 345.432 97.738 345.782 97.738H347.392V97.976ZM355.194 95.022V93.524H353.36V91.214H351.694V93.524H350.322V95.022H351.694V98.592C351.694 100.216 352.646 101.084 354.284 101.084C354.606 101.084 354.914 101.028 355.18 100.93V99.516C354.998 99.558 354.816 99.572 354.648 99.572C353.794 99.572 353.36 99.222 353.36 98.326V95.022H355.194ZM357 91.872C357.434 92.306 358.106 92.306 358.54 91.872C358.974 91.438 358.974 90.766 358.54 90.332C358.106 89.884 357.434 89.884 357 90.332C356.566 90.766 356.566 91.438 357 91.872ZM358.61 93.524H356.944V101H358.61V93.524ZM364.285 93.37C363.193 93.37 362.255 93.748 361.485 94.49C360.715 95.232 360.323 96.156 360.323 97.248C360.323 98.34 360.701 99.264 361.471 100.006C362.241 100.748 363.179 101.126 364.271 101.126C365.377 101.126 366.301 100.748 367.057 100.006C367.827 99.25 368.205 98.326 368.205 97.22C368.205 96.128 367.827 95.218 367.057 94.476C366.287 93.734 365.363 93.37 364.285 93.37ZM362.647 95.568C363.067 95.106 363.613 94.882 364.271 94.882C364.929 94.882 365.475 95.106 365.881 95.568C366.301 96.03 366.511 96.59 366.511 97.248C366.511 97.906 366.301 98.466 365.895 98.928C365.489 99.39 364.943 99.614 364.285 99.614C363.627 99.614 363.081 99.376 362.661 98.914C362.241 98.438 362.031 97.878 362.031 97.22C362.031 96.562 362.241 96.016 362.647 95.568ZM376.652 101V96.394C376.652 94.602 375.686 93.37 373.852 93.37C372.9 93.37 372.144 93.762 371.57 94.532V93.524H369.946V101H371.612V96.842C371.612 95.708 372.284 94.952 373.334 94.952C374.44 94.952 374.986 95.694 374.986 96.814V101H376.652Z" fill="#162C5B"/>
<rect x="70" y="41" width="138" height="477" fill="url(#paint0_linear_4918:2983)"/>
<g opacity="0.2">
<path fill-rule="evenodd" clip-rule="evenodd" d="M110 131C98.96 131 90 139.96 90 151C90 162.04 98.96 171 110 171C121.04 171 130 162.04 130 151C130 139.96 121.04 131 110 131ZM110 137C113.32 137 116 139.68 116 143C116 146.32 113.32 149 110 149C106.68 149 104 146.32 104 143C104 139.68 106.68 137 110 137ZM110 165.4C105 165.4 100.58 162.84 98 158.96C98.06 154.98 106 152.8 110 152.8C113.98 152.8 121.94 154.98 122 158.96C119.42 162.84 115 165.4 110 165.4Z" fill="white"/>
<path fill-rule="evenodd" clip-rule="evenodd" d="M110 243C110 241.895 110.895 241 112 241H168C169.105 241 170 241.895 170 243V249C170 250.105 169.105 251 168 251H112C110.895 251 110 250.105 110 249V243Z" fill="white"/>
<rect x="90" y="241" width="10" height="10" rx="5" fill="white"/>
<path fill-rule="evenodd" clip-rule="evenodd" d="M110 278C110 276.895 110.895 276 112 276H168C169.105 276 170 276.895 170 278V284C170 285.105 169.105 286 168 286H112C110.895 286 110 285.105 110 284V278Z" fill="white"/>
<rect x="90" y="276" width="10" height="10" rx="5" fill="white"/>
<path fill-rule="evenodd" clip-rule="evenodd" d="M110 313C110 311.895 110.895 311 112 311H168C169.105 311 170 311.895 170 313V319C170 320.105 169.105 321 168 321H112C110.895 321 110 320.105 110 319V313Z" fill="white"/>
<rect x="90" y="311" width="10" height="10" rx="5" fill="white"/>
<path fill-rule="evenodd" clip-rule="evenodd" d="M110 348C110 346.895 110.895 346 112 346H168C169.105 346 170 346.895 170 348V354C170 355.105 169.105 356 168 356H112C110.895 356 110 355.105 110 354V348Z" fill="white"/>
<rect x="90" y="346" width="10" height="10" rx="5" fill="white"/>
<path fill-rule="evenodd" clip-rule="evenodd" d="M110 383C110 381.895 110.895 381 112 381H168C169.105 381 170 381.895 170 383V389C170 390.105 169.105 391 168 391H112C110.895 391 110 390.105 110 389V383Z" fill="white"/>
<rect x="90" y="381" width="10" height="10" rx="5" fill="white"/>
<path fill-rule="evenodd" clip-rule="evenodd" d="M90 198C90 196.895 90.8954 196 92 196H134C135.105 196 136 196.895 136 198V204C136 205.105 135.105 206 134 206H92C90.8954 206 90 205.105 90 204V198Z" fill="white"/>
<path fill-rule="evenodd" clip-rule="evenodd" d="M90 213C90 211.895 90.8954 211 92 211H140C141.105 211 142 211.895 142 213V219C142 220.105 141.105 221 140 221H92C90.8954 221 90 220.105 90 219V213Z" fill="white"/>
</g>
<circle cx="89.5" cy="51.5" r="3.5" fill="#FF6051"/>
<circle cx="99.5" cy="51.5" r="3.5" fill="#FEBE05"/>
<circle cx="109.5" cy="51.5" r="3.5" fill="#1ECB3D"/>
<path d="M244.38 63.9534L240.333 68L244.38 72.0467" stroke="#909DBC" stroke-width="1.2" stroke-miterlimit="10" stroke-linecap="round" stroke-linejoin="round"/>
<path d="M251.667 68H240.447" stroke="#909DBC" stroke-width="1.2" stroke-miterlimit="10" stroke-linecap="round" stroke-linejoin="round"/>
<path d="M260.1 72H263.499C265.49 72 266.557 71.043 266.557 69.591C266.557 69.173 266.436 68.766 266.183 68.381C265.93 67.996 265.512 67.699 264.918 67.512C265.545 67.237 265.952 66.643 266.073 66.247C266.128 66.038 266.161 65.84 266.161 65.653C266.161 64.949 265.908 64.399 265.402 63.992C264.896 63.585 264.225 63.387 263.389 63.387H260.1V72ZM261.442 64.608H263.213C264.313 64.608 264.808 65.081 264.808 65.796C264.808 66.511 264.247 67.028 263.136 67.028H261.442V64.608ZM261.442 68.216H263.433C264.621 68.216 265.204 68.733 265.204 69.481C265.204 70.262 264.61 70.779 263.521 70.779H261.442V68.216ZM271.313 68.018C271.313 68.348 271.126 68.513 270.763 68.513H270.037C269.003 68.513 267.595 68.942 267.595 70.306V70.372C267.595 70.878 267.782 71.296 268.156 71.615C268.53 71.934 269.003 72.099 269.575 72.099C270.367 72.099 270.939 71.802 271.302 71.197V72H272.589V68.26C272.589 67.853 272.523 67.501 272.391 67.204C272.028 66.401 271.291 66.005 270.191 66.005C268.992 66.005 268.156 66.5 267.694 67.501L268.695 68.073C268.992 67.446 269.487 67.138 270.158 67.138C270.895 67.138 271.313 67.534 271.313 68.018ZM271.302 69.624C271.302 70.504 270.73 71.054 269.839 71.054C269.278 71.054 268.904 70.735 268.904 70.251C268.904 69.998 269.025 69.8 269.256 69.657C269.498 69.514 269.762 69.437 270.037 69.437H271.302V69.624ZM276.947 72.099C277.662 72.099 278.245 71.923 278.696 71.571C279.147 71.219 279.466 70.801 279.631 70.328L278.487 69.822C278.212 70.548 277.706 70.911 276.969 70.911C276.474 70.911 276.056 70.735 275.726 70.383C275.396 70.031 275.231 69.58 275.231 69.03C275.231 68.491 275.396 68.051 275.726 67.71C276.067 67.369 276.474 67.193 276.958 67.193C277.706 67.193 278.212 67.556 278.465 68.271L279.587 67.765C279.235 66.72 278.267 66.005 276.947 66.005C276.078 66.005 275.352 66.302 274.769 66.907C274.186 67.512 273.889 68.227 273.889 69.052C273.889 69.921 274.186 70.647 274.769 71.23C275.352 71.813 276.078 72.099 276.947 72.099ZM280.892 72H282.201V69.129H282.234L284.687 72H286.414L283.62 68.788L286.271 66.126H284.489L282.212 68.436H282.201V63.046H280.892V72Z" fill="#909DBC"/>
<g clip-path="url(#clip0_4918:2983)">
<path d="M90 85.0002L101.79 92.7642L106.826 91.6159L90 85.0002Z" fill="white"/>
<path d="M101.79 92.7642L95.5146 98.5928L94.6162 101L106.825 91.616L101.79 92.7642Z" fill="white"/>
<path d="M101.79 92.7642H99.7715L90 85.0002L101.79 92.7642Z" fill="white"/>
<path d="M101.79 92.7642L95.5146 98.5928L99.7713 92.7642H101.79Z" fill="white"/>
<path d="M95.5152 98.5928L92.4771 94.0236L94.6167 101L95.5152 98.5928Z" fill="white"/>
<path d="M108.595 89.1358L109.425 90.4834H113.755C114.367 90.4834 114.92 90.5844 115.417 90.786C115.913 90.9878 116.337 91.2783 116.688 91.6584C117.04 92.0379 117.31 92.5027 117.497 93.0547C117.685 93.6062 117.779 94.2295 117.779 94.9234C117.779 95.6237 117.685 96.249 117.497 96.8003C117.31 97.3526 117.04 97.8171 116.688 98.1966C116.337 98.5763 115.913 98.8673 115.417 99.0697C114.92 99.271 114.367 99.3722 113.755 99.3722H111.091V92.7583H109.425V100.72H113.755C114.608 100.72 115.386 100.581 116.089 100.305C116.791 100.027 117.394 99.6339 117.896 99.1253C118.397 98.6171 118.786 98.0059 119.063 97.2931C119.339 96.5804 119.477 95.7903 119.477 94.9234C119.477 94.0629 119.339 93.2753 119.063 92.5619C118.786 91.8493 118.397 91.2403 117.896 90.734C117.394 90.2277 116.791 89.8352 116.089 89.555C115.386 89.2754 114.608 89.1358 113.755 89.1358H108.595Z" fill="white"/>
<path d="M122.873 89.1358V100.72H130.02L130.028 99.3636H124.539V95.5286H128.957V94.2216H124.539V90.4918H130.02V89.1358H122.873Z" fill="white"/>
<path d="M141.335 89.1358V97.1279C141.335 97.2512 141.338 97.3858 141.347 97.5311C141.354 97.6767 141.363 97.8217 141.374 97.9668L134.8 89.4176C134.709 89.2941 134.627 89.2159 134.554 89.1839C134.482 89.1521 134.373 89.1358 134.229 89.1358H133.368V100.72H134.824V92.671C134.824 92.5536 134.82 92.4249 134.812 92.2876C134.804 92.1509 134.794 92.0115 134.783 91.8723L141.366 100.421C141.452 100.529 141.54 100.605 141.628 100.651C141.717 100.697 141.825 100.72 141.954 100.72H142.791V89.1358H141.335Z" fill="white"/>
<path d="M146.057 89.1358L146.888 90.4834H151.217C151.828 90.4834 152.382 90.5844 152.879 90.786C153.375 90.9878 153.799 91.2783 154.15 91.6584C154.502 92.0379 154.771 92.5027 154.959 93.0547C155.147 93.6062 155.24 94.2295 155.24 94.9234C155.24 95.6237 155.147 96.249 154.959 96.8003C154.771 97.3526 154.502 97.8171 154.15 98.1966C153.799 98.5763 153.375 98.8673 152.879 99.0697C152.382 99.271 151.828 99.3722 151.217 99.3722H148.553V92.7583H146.888V100.72H151.217C152.07 100.72 152.848 100.581 153.551 100.305C154.253 100.027 154.855 99.6339 155.358 99.1253C155.859 98.6171 156.247 98.0059 156.524 97.2931C156.801 96.5804 156.939 95.7903 156.939 94.9234C156.939 94.0629 156.801 93.2753 156.524 92.5619C156.247 91.8493 155.859 91.2403 155.358 90.734C154.855 90.2277 154.253 89.8352 153.551 89.555C152.848 89.2754 152.07 89.1358 151.217 89.1358H146.057Z" fill="white"/>
<path d="M160.334 100.72H162.001V89.1357H160.334V100.72Z" fill="white"/>
</g>
<path fill-rule="evenodd" clip-rule="evenodd" d="M238 166C238 163.239 240.239 161 243 161H455C457.761 161 460 163.239 460 166C460 168.761 457.761 171 455 171H243C240.239 171 238 168.761 238 166Z" fill="#DFE5F2"/>
<path fill-rule="evenodd" clip-rule="evenodd" d="M238 191C238 188.239 240.239 186 243 186H344C346.761 186 349 188.239 349 191C349 193.761 346.761 196 344 196H243C240.239 196 238 193.761 238 191Z" fill="#EFF3FD"/>
<path fill-rule="evenodd" clip-rule="evenodd" d="M359 191C359 188.239 361.239 186 364 186H465C467.761 186 470 188.239 470 191C470 193.761 467.761 196 465 196H364C361.239 196 359 193.761 359 191Z" fill="#EFF3FD"/>
<path d="M239.1 148H240.453V139.387H239.1V148ZM247.694 148V144.381C247.694 142.973 246.935 142.005 245.494 142.005C244.746 142.005 244.152 142.313 243.701 142.918V142.126H242.425V148H243.734V144.733C243.734 143.842 244.262 143.248 245.087 143.248C245.956 143.248 246.385 143.831 246.385 144.711V148H247.694ZM252.796 139.101C252.587 139.046 252.389 139.013 252.191 139.013C250.75 139.013 249.881 139.849 249.881 141.301V142.126H248.803V143.281H249.881V148H251.201V143.281H252.763V142.126H251.201V141.345C251.201 140.564 251.575 140.179 252.323 140.179C252.51 140.179 252.664 140.19 252.796 140.223V139.101ZM256.432 142.005C255.574 142.005 254.837 142.302 254.232 142.885C253.627 143.468 253.319 144.194 253.319 145.052C253.319 145.91 253.616 146.636 254.221 147.219C254.826 147.802 255.563 148.099 256.421 148.099C257.29 148.099 258.016 147.802 258.61 147.219C259.215 146.625 259.512 145.899 259.512 145.03C259.512 144.172 259.215 143.457 258.61 142.874C258.005 142.291 257.279 142.005 256.432 142.005ZM255.145 143.732C255.475 143.369 255.904 143.193 256.421 143.193C256.938 143.193 257.367 143.369 257.686 143.732C258.016 144.095 258.181 144.535 258.181 145.052C258.181 145.569 258.016 146.009 257.697 146.372C257.378 146.735 256.949 146.911 256.432 146.911C255.915 146.911 255.486 146.724 255.156 146.361C254.826 145.987 254.661 145.547 254.661 145.03C254.661 144.513 254.826 144.084 255.145 143.732ZM264.092 142.104C264.015 142.082 263.916 142.071 263.773 142.071C263.058 142.071 262.519 142.401 262.156 143.061V142.126H260.88V148H262.189V145.019C262.189 143.996 262.717 143.413 263.718 143.413C263.861 143.413 263.982 143.424 264.092 143.446V142.104ZM270.357 148V144.722C270.357 143.831 270.852 143.237 271.655 143.237C272.524 143.237 272.909 143.798 272.909 144.689V148H274.218V144.37C274.218 142.962 273.503 141.994 272.084 141.994C271.215 141.994 270.643 142.302 270.038 142.962C269.675 142.313 269.07 141.994 268.223 141.994C267.519 141.994 266.936 142.302 266.474 142.918V142.126H265.198V148H266.507V144.733C266.507 143.842 267.002 143.237 267.794 143.237C268.663 143.237 269.059 143.82 269.059 144.7V148H270.357ZM279.263 144.018C279.263 144.348 279.076 144.513 278.713 144.513H277.987C276.953 144.513 275.545 144.942 275.545 146.306V146.372C275.545 146.878 275.732 147.296 276.106 147.615C276.48 147.934 276.953 148.099 277.525 148.099C278.317 148.099 278.889 147.802 279.252 147.197V148H280.539V144.26C280.539 143.853 280.473 143.501 280.341 143.204C279.978 142.401 279.241 142.005 278.141 142.005C276.942 142.005 276.106 142.5 275.644 143.501L276.645 144.073C276.942 143.446 277.437 143.138 278.108 143.138C278.845 143.138 279.263 143.534 279.263 144.018ZM279.252 145.624C279.252 146.504 278.68 147.054 277.789 147.054C277.228 147.054 276.854 146.735 276.854 146.251C276.854 145.998 276.975 145.8 277.206 145.657C277.448 145.514 277.712 145.437 277.987 145.437H279.252V145.624ZM285.383 143.303V142.126H283.942V140.311H282.633V142.126H281.555V143.303H282.633V146.108C282.633 147.384 283.381 148.066 284.668 148.066C284.921 148.066 285.163 148.022 285.372 147.945V146.834C285.229 146.867 285.086 146.878 284.954 146.878C284.283 146.878 283.942 146.603 283.942 145.899V143.303H285.383ZM286.802 140.828C287.143 141.169 287.671 141.169 288.012 140.828C288.353 140.487 288.353 139.959 288.012 139.618C287.671 139.266 287.143 139.266 286.802 139.618C286.461 139.959 286.461 140.487 286.802 140.828ZM288.067 142.126H286.758V148H288.067V142.126ZM292.525 142.005C291.667 142.005 290.93 142.302 290.325 142.885C289.72 143.468 289.412 144.194 289.412 145.052C289.412 145.91 289.709 146.636 290.314 147.219C290.919 147.802 291.656 148.099 292.514 148.099C293.383 148.099 294.109 147.802 294.703 147.219C295.308 146.625 295.605 145.899 295.605 145.03C295.605 144.172 295.308 143.457 294.703 142.874C294.098 142.291 293.372 142.005 292.525 142.005ZM291.238 143.732C291.568 143.369 291.997 143.193 292.514 143.193C293.031 143.193 293.46 143.369 293.779 143.732C294.109 144.095 294.274 144.535 294.274 145.052C294.274 145.569 294.109 146.009 293.79 146.372C293.471 146.735 293.042 146.911 292.525 146.911C292.008 146.911 291.579 146.724 291.249 146.361C290.919 145.987 290.754 145.547 290.754 145.03C290.754 144.513 290.919 144.084 291.238 143.732ZM302.243 148V144.381C302.243 142.973 301.484 142.005 300.043 142.005C299.295 142.005 298.701 142.313 298.25 142.918V142.126H296.974V148H298.283V144.733C298.283 143.842 298.811 143.248 299.636 143.248C300.505 143.248 300.934 143.831 300.934 144.711V148H302.243Z" fill="#909DBC"/>
<path fill-rule="evenodd" clip-rule="evenodd" d="M238 245C238 242.239 240.239 240 243 240H404C406.761 240 409 242.239 409 245C409 247.761 406.761 250 404 250H243C240.239 250 238 247.761 238 245Z" fill="#DFE5F2"/>
<path d="M245.161 221.06C245.161 220.323 244.908 219.685 244.402 219.168C243.907 218.651 243.148 218.387 242.147 218.387H239.1V227H240.453V223.81H241.982C242.983 223.81 243.753 223.546 244.314 223.029C244.875 222.501 245.161 221.841 245.161 221.06ZM242.026 219.641C242.664 219.641 243.115 219.784 243.379 220.07C243.654 220.356 243.786 220.697 243.786 221.093C243.786 221.885 243.225 222.567 242.026 222.567H240.453V219.641H242.026ZM249.583 223.018C249.583 223.348 249.396 223.513 249.033 223.513H248.307C247.273 223.513 245.865 223.942 245.865 225.306V225.372C245.865 225.878 246.052 226.296 246.426 226.615C246.8 226.934 247.273 227.099 247.845 227.099C248.637 227.099 249.209 226.802 249.572 226.197V227H250.859V223.26C250.859 222.853 250.793 222.501 250.661 222.204C250.298 221.401 249.561 221.005 248.461 221.005C247.262 221.005 246.426 221.5 245.964 222.501L246.965 223.073C247.262 222.446 247.757 222.138 248.428 222.138C249.165 222.138 249.583 222.534 249.583 223.018ZM249.572 224.624C249.572 225.504 249 226.054 248.109 226.054C247.548 226.054 247.174 225.735 247.174 225.251C247.174 224.998 247.295 224.8 247.526 224.657C247.768 224.514 248.032 224.437 248.307 224.437H249.572V224.624ZM254.458 227.099C255.118 227.099 255.657 226.934 256.064 226.593C256.471 226.252 256.68 225.812 256.68 225.273C256.68 224.36 255.976 223.722 254.645 223.425C253.886 223.26 253.556 223.062 253.556 222.677C253.556 222.358 253.974 222.105 254.381 222.105C254.942 222.105 255.349 222.369 255.613 222.897L256.625 222.325C256.218 221.445 255.481 221.005 254.425 221.005C253.853 221.005 253.358 221.17 252.929 221.511C252.5 221.852 252.291 222.281 252.291 222.809C252.291 223.227 252.434 223.579 252.709 223.876C253.028 224.217 253.523 224.448 254.172 224.58C254.975 224.745 255.382 225.009 255.382 225.35C255.382 225.746 254.953 225.999 254.458 225.999C253.831 225.999 253.369 225.68 253.05 225.053L252.027 225.625C252.478 226.604 253.292 227.099 254.458 227.099ZM259.979 227.099C260.639 227.099 261.178 226.934 261.585 226.593C261.992 226.252 262.201 225.812 262.201 225.273C262.201 224.36 261.497 223.722 260.166 223.425C259.407 223.26 259.077 223.062 259.077 222.677C259.077 222.358 259.495 222.105 259.902 222.105C260.463 222.105 260.87 222.369 261.134 222.897L262.146 222.325C261.739 221.445 261.002 221.005 259.946 221.005C259.374 221.005 258.879 221.17 258.45 221.511C258.021 221.852 257.812 222.281 257.812 222.809C257.812 223.227 257.955 223.579 258.23 223.876C258.549 224.217 259.044 224.448 259.693 224.58C260.496 224.745 260.903 225.009 260.903 225.35C260.903 225.746 260.474 225.999 259.979 225.999C259.352 225.999 258.89 225.68 258.571 225.053L257.548 225.625C257.999 226.604 258.813 227.099 259.979 227.099ZM270.642 221.126L269.41 225.284H269.388L268.046 221.126H266.726L265.395 225.273H265.384L264.152 221.126H262.777L264.658 227H266L267.364 222.875H267.386L268.739 227H270.103L271.984 221.126H270.642ZM275.671 221.005C274.813 221.005 274.076 221.302 273.471 221.885C272.866 222.468 272.558 223.194 272.558 224.052C272.558 224.91 272.855 225.636 273.46 226.219C274.065 226.802 274.802 227.099 275.66 227.099C276.529 227.099 277.255 226.802 277.849 226.219C278.454 225.625 278.751 224.899 278.751 224.03C278.751 223.172 278.454 222.457 277.849 221.874C277.244 221.291 276.518 221.005 275.671 221.005ZM274.384 222.732C274.714 222.369 275.143 222.193 275.66 222.193C276.177 222.193 276.606 222.369 276.925 222.732C277.255 223.095 277.42 223.535 277.42 224.052C277.42 224.569 277.255 225.009 276.936 225.372C276.617 225.735 276.188 225.911 275.671 225.911C275.154 225.911 274.725 225.724 274.395 225.361C274.065 224.987 273.9 224.547 273.9 224.03C273.9 223.513 274.065 223.084 274.384 222.732ZM283.331 221.104C283.254 221.082 283.155 221.071 283.012 221.071C282.297 221.071 281.758 221.401 281.395 222.061V221.126H280.119V227H281.428V224.019C281.428 222.996 281.956 222.413 282.957 222.413C283.1 222.413 283.221 222.424 283.331 222.446V221.104ZM283.902 224.052C283.902 224.866 284.177 225.581 284.727 226.186C285.277 226.791 285.97 227.088 286.795 227.088C287.103 227.088 287.455 227.011 287.851 226.846C288.258 226.681 288.555 226.428 288.764 226.087V227H290.04V218.046H288.731V221.962C288.533 221.643 288.247 221.412 287.862 221.258C287.488 221.093 287.147 221.016 286.828 221.016C285.959 221.016 285.244 221.324 284.705 221.94C284.166 222.556 283.902 223.26 283.902 224.052ZM286.993 222.193C287.51 222.193 287.928 222.369 288.258 222.732C288.588 223.095 288.753 223.535 288.753 224.052C288.753 224.569 288.588 225.009 288.258 225.372C287.939 225.724 287.51 225.9 286.993 225.9C286.476 225.9 286.047 225.724 285.717 225.372C285.398 225.009 285.233 224.569 285.233 224.052C285.233 223.535 285.398 223.095 285.717 222.732C286.047 222.369 286.476 222.193 286.993 222.193Z" fill="#909DBC"/>
<path d="M241.924 292.108C242.896 292.108 243.676 291.844 244.252 291.304C244.828 290.764 245.116 290.128 245.116 289.396C245.116 288.712 244.888 288.148 244.444 287.716C244 287.272 243.196 286.876 242.032 286.528C240.88 286.18 240.292 285.796 240.292 285.088C240.292 284.332 240.952 283.804 241.864 283.804C242.764 283.804 243.4 284.248 243.76 285.124L244.984 284.464C244.54 283.3 243.484 282.472 241.9 282.472C241.024 282.472 240.292 282.736 239.68 283.264C239.08 283.78 238.78 284.416 238.78 285.172C238.78 285.892 239.02 286.468 239.5 286.888C239.956 287.296 240.688 287.656 241.708 287.98C243.052 288.4 243.592 288.796 243.592 289.48C243.592 290.26 242.908 290.764 241.948 290.764C240.928 290.764 240.112 290.212 239.716 289.204L238.468 289.852C238.996 291.292 240.28 292.108 241.924 292.108ZM250.081 286.876V285.592H248.509V283.612H247.081V285.592H245.905V286.876H247.081V289.936C247.081 291.328 247.897 292.072 249.301 292.072C249.577 292.072 249.841 292.024 250.069 291.94V290.728C249.913 290.764 249.757 290.776 249.613 290.776C248.881 290.776 248.509 290.476 248.509 289.708V286.876H250.081ZM255.241 287.656C255.241 288.016 255.037 288.196 254.641 288.196H253.849C252.721 288.196 251.185 288.664 251.185 290.152V290.224C251.185 290.776 251.389 291.232 251.797 291.58C252.205 291.928 252.721 292.108 253.345 292.108C254.209 292.108 254.833 291.784 255.229 291.124V292H256.633V287.92C256.633 287.476 256.561 287.092 256.417 286.768C256.021 285.892 255.217 285.46 254.017 285.46C252.709 285.46 251.797 286 251.293 287.092L252.385 287.716C252.709 287.032 253.249 286.696 253.981 286.696C254.785 286.696 255.241 287.128 255.241 287.656ZM255.229 289.408C255.229 290.368 254.605 290.968 253.633 290.968C253.021 290.968 252.613 290.62 252.613 290.092C252.613 289.816 252.745 289.6 252.997 289.444C253.261 289.288 253.549 289.204 253.849 289.204H255.229V289.408ZM264.231 292V288.052C264.231 286.516 263.403 285.46 261.831 285.46C261.015 285.46 260.367 285.796 259.875 286.456V285.592H258.483V292H259.911V288.436C259.911 287.464 260.487 286.816 261.387 286.816C262.335 286.816 262.803 287.452 262.803 288.412V292H264.231ZM265.633 288.784C265.633 289.672 265.933 290.452 266.533 291.112C267.133 291.772 267.889 292.096 268.789 292.096C269.125 292.096 269.509 292.012 269.941 291.832C270.385 291.652 270.709 291.376 270.937 291.004V292H272.329V282.232H270.901V286.504C270.685 286.156 270.373 285.904 269.953 285.736C269.545 285.556 269.173 285.472 268.825 285.472C267.877 285.472 267.097 285.808 266.509 286.48C265.921 287.152 265.633 287.92 265.633 288.784ZM269.005 286.756C269.569 286.756 270.025 286.948 270.385 287.344C270.745 287.74 270.925 288.22 270.925 288.784C270.925 289.348 270.745 289.828 270.385 290.224C270.037 290.608 269.569 290.8 269.005 290.8C268.441 290.8 267.973 290.608 267.613 290.224C267.265 289.828 267.085 289.348 267.085 288.784C267.085 288.22 267.265 287.74 267.613 287.344C267.973 286.948 268.441 286.756 269.005 286.756ZM277.905 287.656C277.905 288.016 277.701 288.196 277.305 288.196H276.513C275.385 288.196 273.849 288.664 273.849 290.152V290.224C273.849 290.776 274.053 291.232 274.461 291.58C274.869 291.928 275.385 292.108 276.009 292.108C276.873 292.108 277.497 291.784 277.893 291.124V292H279.297V287.92C279.297 287.476 279.225 287.092 279.081 286.768C278.685 285.892 277.881 285.46 276.681 285.46C275.373 285.46 274.461 286 273.957 287.092L275.049 287.716C275.373 287.032 275.913 286.696 276.645 286.696C277.449 286.696 277.905 287.128 277.905 287.656ZM277.893 289.408C277.893 290.368 277.269 290.968 276.297 290.968C275.685 290.968 275.277 290.62 275.277 290.092C275.277 289.816 275.409 289.6 275.661 289.444C275.925 289.288 276.213 289.204 276.513 289.204H277.893V289.408ZM284.652 285.568C284.568 285.544 284.46 285.532 284.304 285.532C283.524 285.532 282.936 285.892 282.54 286.612V285.592H281.148V292H282.576V288.748C282.576 287.632 283.152 286.996 284.244 286.996C284.4 286.996 284.532 287.008 284.652 287.032V285.568ZM285.274 288.784C285.274 289.672 285.574 290.452 286.174 291.112C286.774 291.772 287.53 292.096 288.43 292.096C288.766 292.096 289.15 292.012 289.582 291.832C290.026 291.652 290.35 291.376 290.578 291.004V292H291.97V282.232H290.542V286.504C290.326 286.156 290.014 285.904 289.594 285.736C289.186 285.556 288.814 285.472 288.466 285.472C287.518 285.472 286.738 285.808 286.15 286.48C285.562 287.152 285.274 287.92 285.274 288.784ZM288.646 286.756C289.21 286.756 289.666 286.948 290.026 287.344C290.386 287.74 290.566 288.22 290.566 288.784C290.566 289.348 290.386 289.828 290.026 290.224C289.678 290.608 289.21 290.8 288.646 290.8C288.082 290.8 287.614 290.608 287.254 290.224C286.906 289.828 286.726 289.348 286.726 288.784C286.726 288.22 286.906 287.74 287.254 287.344C287.614 286.948 288.082 286.756 288.646 286.756ZM299.954 292.108C300.734 292.108 301.37 291.916 301.862 291.532C302.354 291.148 302.702 290.692 302.882 290.176L301.634 289.624C301.334 290.416 300.782 290.812 299.978 290.812C299.438 290.812 298.982 290.62 298.622 290.236C298.262 289.852 298.082 289.36 298.082 288.76C298.082 288.172 298.262 287.692 298.622 287.32C298.994 286.948 299.438 286.756 299.966 286.756C300.782 286.756 301.334 287.152 301.61 287.932L302.834 287.38C302.45 286.24 301.394 285.46 299.954 285.46C299.006 285.46 298.214 285.784 297.578 286.444C296.942 287.104 296.618 287.884 296.618 288.784C296.618 289.732 296.942 290.524 297.578 291.16C298.214 291.796 299.006 292.108 299.954 292.108ZM304.257 292H305.685V282.232H304.257V292ZM307.645 284.176C308.017 284.548 308.593 284.548 308.965 284.176C309.337 283.804 309.337 283.228 308.965 282.856C308.593 282.472 308.017 282.472 307.645 282.856C307.273 283.228 307.273 283.804 307.645 284.176ZM309.025 285.592H307.597V292H309.025V285.592ZM316.685 292V288.052C316.685 286.516 315.857 285.46 314.285 285.46C313.469 285.46 312.821 285.796 312.329 286.456V285.592H310.937V292H312.365V288.436C312.365 287.464 312.941 286.816 313.841 286.816C314.789 286.816 315.257 287.452 315.257 288.412V292H316.685ZM318.578 284.176C318.95 284.548 319.526 284.548 319.898 284.176C320.27 283.804 320.27 283.228 319.898 282.856C319.526 282.472 318.95 282.472 318.578 282.856C318.206 283.228 318.206 283.804 318.578 284.176ZM319.958 285.592H318.53V292H319.958V285.592ZM324.774 292.108C325.554 292.108 326.19 291.916 326.682 291.532C327.174 291.148 327.522 290.692 327.702 290.176L326.454 289.624C326.154 290.416 325.602 290.812 324.798 290.812C324.258 290.812 323.802 290.62 323.442 290.236C323.082 289.852 322.902 289.36 322.902 288.76C322.902 288.172 323.082 287.692 323.442 287.32C323.814 286.948 324.258 286.756 324.786 286.756C325.602 286.756 326.154 287.152 326.43 287.932L327.654 287.38C327.27 286.24 326.214 285.46 324.774 285.46C323.826 285.46 323.034 285.784 322.398 286.444C321.762 287.104 321.438 287.884 321.438 288.784C321.438 289.732 321.762 290.524 322.398 291.16C323.034 291.796 323.826 292.108 324.774 292.108ZM332.737 287.656C332.737 288.016 332.533 288.196 332.137 288.196H331.345C330.217 288.196 328.681 288.664 328.681 290.152V290.224C328.681 290.776 328.885 291.232 329.293 291.58C329.701 291.928 330.217 292.108 330.841 292.108C331.705 292.108 332.329 291.784 332.725 291.124V292H334.129V287.92C334.129 287.476 334.057 287.092 333.913 286.768C333.517 285.892 332.713 285.46 331.513 285.46C330.205 285.46 329.293 286 328.789 287.092L329.881 287.716C330.205 287.032 330.745 286.696 331.477 286.696C332.281 286.696 332.737 287.128 332.737 287.656ZM332.725 289.408C332.725 290.368 332.101 290.968 331.129 290.968C330.517 290.968 330.109 290.62 330.109 290.092C330.109 289.816 330.241 289.6 330.493 289.444C330.757 289.288 331.045 289.204 331.345 289.204H332.725V289.408ZM335.98 292H337.408V282.232H335.98V292ZM350.355 285.592L349.011 290.128H348.987L347.523 285.592H346.083L344.631 290.116H344.619L343.275 285.592H341.775L343.827 292H345.291L346.779 287.5H346.803L348.279 292H349.767L351.819 285.592H350.355ZM355.842 285.46C354.906 285.46 354.102 285.784 353.442 286.42C352.782 287.056 352.446 287.848 352.446 288.784C352.446 289.72 352.77 290.512 353.43 291.148C354.09 291.784 354.894 292.108 355.83 292.108C356.778 292.108 357.57 291.784 358.218 291.148C358.878 290.5 359.202 289.708 359.202 288.76C359.202 287.824 358.878 287.044 358.218 286.408C357.558 285.772 356.766 285.46 355.842 285.46ZM354.438 287.344C354.798 286.948 355.266 286.756 355.83 286.756C356.394 286.756 356.862 286.948 357.21 287.344C357.57 287.74 357.75 288.22 357.75 288.784C357.75 289.348 357.57 289.828 357.222 290.224C356.874 290.62 356.406 290.812 355.842 290.812C355.278 290.812 354.81 290.608 354.45 290.212C354.09 289.804 353.91 289.324 353.91 288.76C353.91 288.196 354.09 287.728 354.438 287.344ZM364.198 285.568C364.114 285.544 364.006 285.532 363.85 285.532C363.07 285.532 362.482 285.892 362.086 286.612V285.592H360.694V292H362.122V288.748C362.122 287.632 362.698 286.996 363.79 286.996C363.946 286.996 364.078 287.008 364.198 287.032V285.568ZM365.405 292H366.833V288.868H366.869L369.545 292H371.429L368.381 288.496L371.273 285.592H369.329L366.845 288.112H366.833V282.232H365.405V292ZM377.238 282.22V285.592H374.346V284.74C374.346 283.888 374.754 283.468 375.57 283.468C375.774 283.468 375.942 283.48 376.086 283.516V282.292C375.858 282.232 375.642 282.196 375.426 282.196C373.854 282.196 372.906 283.108 372.906 284.692V285.592H371.73V286.852H372.906V292H374.346V286.852H377.238V292H378.666V282.22H377.238ZM383.533 285.46C382.597 285.46 381.793 285.784 381.133 286.42C380.473 287.056 380.137 287.848 380.137 288.784C380.137 289.72 380.461 290.512 381.121 291.148C381.781 291.784 382.585 292.108 383.521 292.108C384.469 292.108 385.261 291.784 385.909 291.148C386.569 290.5 386.893 289.708 386.893 288.76C386.893 287.824 386.569 287.044 385.909 286.408C385.249 285.772 384.457 285.46 383.533 285.46ZM382.129 287.344C382.489 286.948 382.957 286.756 383.521 286.756C384.085 286.756 384.553 286.948 384.901 287.344C385.261 287.74 385.441 288.22 385.441 288.784C385.441 289.348 385.261 289.828 384.913 290.224C384.565 290.62 384.097 290.812 383.533 290.812C382.969 290.812 382.501 290.608 382.141 290.212C381.781 289.804 381.601 289.324 381.601 288.76C381.601 288.196 381.781 287.728 382.129 287.344ZM396.117 285.592L394.773 290.128H394.749L393.285 285.592H391.845L390.393 290.116H390.381L389.037 285.592H387.537L389.589 292H391.053L392.541 287.5H392.565L394.041 292H395.529L397.581 285.592H396.117ZM400.704 292.108C401.424 292.108 402.012 291.928 402.456 291.556C402.9 291.184 403.128 290.704 403.128 290.116C403.128 289.12 402.36 288.424 400.908 288.1C400.08 287.92 399.72 287.704 399.72 287.284C399.72 286.936 400.176 286.66 400.62 286.66C401.232 286.66 401.676 286.948 401.964 287.524L403.068 286.9C402.624 285.94 401.82 285.46 400.668 285.46C400.044 285.46 399.504 285.64 399.036 286.012C398.568 286.384 398.34 286.852 398.34 287.428C398.34 287.884 398.496 288.268 398.796 288.592C399.144 288.964 399.684 289.216 400.392 289.36C401.268 289.54 401.712 289.828 401.712 290.2C401.712 290.632 401.244 290.908 400.704 290.908C400.02 290.908 399.516 290.56 399.168 289.876L398.052 290.5C398.544 291.568 399.432 292.108 400.704 292.108Z" fill="#495879"/>
<circle cx="252" cy="326" r="14" fill="#E1E9FF"/>
<path fill-rule="evenodd" clip-rule="evenodd" d="M282 326C282 323.239 284.239 321 287 321H388C390.761 321 393 323.239 393 326C393 328.761 390.761 331 388 331H287C284.239 331 282 328.761 282 326Z" fill="#EFF3FD"/>
<circle cx="252" cy="369" r="14" fill="#FFEDF4"/>
<path fill-rule="evenodd" clip-rule="evenodd" d="M282 369C282 366.239 284.239 364 287 364H364C366.761 364 369 366.239 369 369C369 371.761 366.761 374 364 374H287C284.239 374 282 371.761 282 369Z" fill="#EFF3FD"/>
<circle cx="252" cy="412" r="14" fill="#DCFBFF"/>
<path fill-rule="evenodd" clip-rule="evenodd" d="M282 412C282 409.239 284.239 407 287 407H335C337.761 407 340 409.239 340 412C340 414.761 337.761 417 335 417H287C284.239 417 282 414.761 282 412Z" fill="#EFF3FD"/>
<path opacity="0.08" d="M128.557 436.246L139.82 478.665L96.0016 462.291L128.557 436.246Z" stroke="white" stroke-width="5"/>
<path d="M247.053 457H248.395V448.387H246.624L243.753 454.976H243.742L240.827 448.387H239.1V457H240.431V450.752H240.453L243.236 457H244.237L247.031 450.719H247.053V457ZM253.08 451.005C252.222 451.005 251.485 451.302 250.88 451.885C250.275 452.468 249.967 453.194 249.967 454.052C249.967 454.91 250.264 455.636 250.869 456.219C251.474 456.802 252.211 457.099 253.069 457.099C253.938 457.099 254.664 456.802 255.258 456.219C255.863 455.625 256.16 454.899 256.16 454.03C256.16 453.172 255.863 452.457 255.258 451.874C254.653 451.291 253.927 451.005 253.08 451.005ZM251.793 452.732C252.123 452.369 252.552 452.193 253.069 452.193C253.586 452.193 254.015 452.369 254.334 452.732C254.664 453.095 254.829 453.535 254.829 454.052C254.829 454.569 254.664 455.009 254.345 455.372C254.026 455.735 253.597 455.911 253.08 455.911C252.563 455.911 252.134 455.724 251.804 455.361C251.474 454.987 251.309 454.547 251.309 454.03C251.309 453.513 251.474 453.084 251.793 452.732ZM257.528 457H258.837V448.046H257.528V457ZM265.991 454.448C266.002 454.349 266.013 454.217 266.013 454.041C266.013 453.128 265.76 452.402 265.254 451.841C264.748 451.28 264.044 451.005 263.153 451.005C262.306 451.005 261.602 451.302 261.041 451.896C260.48 452.49 260.194 453.205 260.194 454.052C260.194 454.921 260.491 455.658 261.074 456.241C261.668 456.824 262.405 457.11 263.274 457.11C264.33 457.11 265.287 456.604 265.782 455.691L264.836 455.064C264.517 455.669 263.989 455.977 263.252 455.977C262.801 455.977 262.405 455.834 262.064 455.548C261.723 455.251 261.547 454.888 261.536 454.448H265.991ZM263.153 452.127C263.989 452.127 264.638 452.633 264.682 453.458H261.602C261.723 452.655 262.35 452.127 263.153 452.127ZM270.02 457.099C270.735 457.099 271.318 456.923 271.769 456.571C272.22 456.219 272.539 455.801 272.704 455.328L271.56 454.822C271.285 455.548 270.779 455.911 270.042 455.911C269.547 455.911 269.129 455.735 268.799 455.383C268.469 455.031 268.304 454.58 268.304 454.03C268.304 453.491 268.469 453.051 268.799 452.71C269.14 452.369 269.547 452.193 270.031 452.193C270.779 452.193 271.285 452.556 271.538 453.271L272.66 452.765C272.308 451.72 271.34 451.005 270.02 451.005C269.151 451.005 268.425 451.302 267.842 451.907C267.259 452.512 266.962 453.227 266.962 454.052C266.962 454.921 267.259 455.647 267.842 456.23C268.425 456.813 269.151 457.099 270.02 457.099ZM273.898 451.126V454.734C273.898 456.142 274.679 457.121 276.098 457.121C276.846 457.121 277.44 456.813 277.891 456.208V457H279.167V451.126H277.858V454.393C277.858 455.284 277.33 455.878 276.505 455.878C275.636 455.878 275.207 455.295 275.207 454.415V451.126H273.898ZM280.925 457H282.234V448.046H280.925V457ZM287.341 453.018C287.341 453.348 287.154 453.513 286.791 453.513H286.065C285.031 453.513 283.623 453.942 283.623 455.306V455.372C283.623 455.878 283.81 456.296 284.184 456.615C284.558 456.934 285.031 457.099 285.603 457.099C286.395 457.099 286.967 456.802 287.33 456.197V457H288.617V453.26C288.617 452.853 288.551 452.501 288.419 452.204C288.056 451.401 287.319 451.005 286.219 451.005C285.02 451.005 284.184 451.5 283.722 452.501L284.723 453.073C285.02 452.446 285.515 452.138 286.186 452.138C286.923 452.138 287.341 452.534 287.341 453.018ZM287.33 454.624C287.33 455.504 286.758 456.054 285.867 456.054C285.306 456.054 284.932 455.735 284.932 455.251C284.932 454.998 285.053 454.8 285.284 454.657C285.526 454.514 285.79 454.437 286.065 454.437H287.33V454.624ZM293.526 451.104C293.449 451.082 293.35 451.071 293.207 451.071C292.492 451.071 291.953 451.401 291.59 452.061V451.126H290.314V457H291.623V454.019C291.623 452.996 292.151 452.413 293.152 452.413C293.295 452.413 293.416 452.424 293.526 452.446V451.104Z" fill="#909DBC"/>
<path d="M322.8 450.818C322.558 450.103 322.096 449.509 321.414 449.014C320.732 448.519 319.896 448.266 318.917 448.266C317.718 448.266 316.695 448.695 315.826 449.542C314.957 450.389 314.528 451.445 314.528 452.71C314.528 453.975 314.935 455.031 315.749 455.856C316.563 456.681 317.619 457.099 318.906 457.099C320.127 457.099 321.095 456.725 321.821 455.977C322.558 455.218 322.921 454.283 322.921 453.161V452.688H318.367V453.92H321.458C321.249 455.053 320.347 455.856 318.895 455.856C318.037 455.856 317.333 455.548 316.772 454.943C316.211 454.338 315.936 453.579 315.936 452.677C315.936 451.775 316.222 451.027 316.783 450.422C317.355 449.817 318.059 449.52 318.906 449.52C320.27 449.52 321.15 450.268 321.601 451.368L322.8 450.818ZM329.659 454.448C329.67 454.349 329.681 454.217 329.681 454.041C329.681 453.128 329.428 452.402 328.922 451.841C328.416 451.28 327.712 451.005 326.821 451.005C325.974 451.005 325.27 451.302 324.709 451.896C324.148 452.49 323.862 453.205 323.862 454.052C323.862 454.921 324.159 455.658 324.742 456.241C325.336 456.824 326.073 457.11 326.942 457.11C327.998 457.11 328.955 456.604 329.45 455.691L328.504 455.064C328.185 455.669 327.657 455.977 326.92 455.977C326.469 455.977 326.073 455.834 325.732 455.548C325.391 455.251 325.215 454.888 325.204 454.448H329.659ZM326.821 452.127C327.657 452.127 328.306 452.633 328.35 453.458H325.27C325.391 452.655 326.018 452.127 326.821 452.127ZM336.295 457V453.381C336.295 451.973 335.536 451.005 334.095 451.005C333.347 451.005 332.753 451.313 332.302 451.918V451.126H331.026V457H332.335V453.733C332.335 452.842 332.863 452.248 333.688 452.248C334.557 452.248 334.986 452.831 334.986 453.711V457H336.295ZM340.692 451.005C339.834 451.005 339.097 451.302 338.492 451.885C337.887 452.468 337.579 453.194 337.579 454.052C337.579 454.91 337.876 455.636 338.481 456.219C339.086 456.802 339.823 457.099 340.681 457.099C341.55 457.099 342.276 456.802 342.87 456.219C343.475 455.625 343.772 454.899 343.772 454.03C343.772 453.172 343.475 452.457 342.87 451.874C342.265 451.291 341.539 451.005 340.692 451.005ZM339.405 452.732C339.735 452.369 340.164 452.193 340.681 452.193C341.198 452.193 341.627 452.369 341.946 452.732C342.276 453.095 342.441 453.535 342.441 454.052C342.441 454.569 342.276 455.009 341.957 455.372C341.638 455.735 341.209 455.911 340.692 455.911C340.175 455.911 339.746 455.724 339.416 455.361C339.086 454.987 338.921 454.547 338.921 454.03C338.921 453.513 339.086 453.084 339.405 452.732ZM350.3 457V453.722C350.3 452.831 350.795 452.237 351.598 452.237C352.467 452.237 352.852 452.798 352.852 453.689V457H354.161V453.37C354.161 451.962 353.446 450.994 352.027 450.994C351.158 450.994 350.586 451.302 349.981 451.962C349.618 451.313 349.013 450.994 348.166 450.994C347.462 450.994 346.879 451.302 346.417 451.918V451.126H345.141V457H346.45V453.733C346.45 452.842 346.945 452.237 347.737 452.237C348.606 452.237 349.002 452.82 349.002 453.7V457H350.3ZM355.895 449.828C356.236 450.169 356.764 450.169 357.105 449.828C357.446 449.487 357.446 448.959 357.105 448.618C356.764 448.266 356.236 448.266 355.895 448.618C355.554 448.959 355.554 449.487 355.895 449.828ZM357.16 451.126H355.851V457H357.16V451.126ZM361.574 457.099C362.289 457.099 362.872 456.923 363.323 456.571C363.774 456.219 364.093 455.801 364.258 455.328L363.114 454.822C362.839 455.548 362.333 455.911 361.596 455.911C361.101 455.911 360.683 455.735 360.353 455.383C360.023 455.031 359.858 454.58 359.858 454.03C359.858 453.491 360.023 453.051 360.353 452.71C360.694 452.369 361.101 452.193 361.585 452.193C362.333 452.193 362.839 452.556 363.092 453.271L364.214 452.765C363.862 451.72 362.894 451.005 361.574 451.005C360.705 451.005 359.979 451.302 359.396 451.907C358.813 452.512 358.516 453.227 358.516 454.052C358.516 454.921 358.813 455.647 359.396 456.23C359.979 456.813 360.705 457.099 361.574 457.099ZM367.422 457.099C368.082 457.099 368.621 456.934 369.028 456.593C369.435 456.252 369.644 455.812 369.644 455.273C369.644 454.36 368.94 453.722 367.609 453.425C366.85 453.26 366.52 453.062 366.52 452.677C366.52 452.358 366.938 452.105 367.345 452.105C367.906 452.105 368.313 452.369 368.577 452.897L369.589 452.325C369.182 451.445 368.445 451.005 367.389 451.005C366.817 451.005 366.322 451.17 365.893 451.511C365.464 451.852 365.255 452.281 365.255 452.809C365.255 453.227 365.398 453.579 365.673 453.876C365.992 454.217 366.487 454.448 367.136 454.58C367.939 454.745 368.346 455.009 368.346 455.35C368.346 455.746 367.917 455.999 367.422 455.999C366.795 455.999 366.333 455.68 366.014 455.053L364.991 455.625C365.442 456.604 366.256 457.099 367.422 457.099Z" fill="#909DBC"/>
<path d="M237.22 475.641H239.948V483H241.301V475.641H244.04V474.387H237.22V475.641ZM246.72 477.005C245.862 477.005 245.125 477.302 244.52 477.885C243.915 478.468 243.607 479.194 243.607 480.052C243.607 480.91 243.904 481.636 244.509 482.219C245.114 482.802 245.851 483.099 246.709 483.099C247.578 483.099 248.304 482.802 248.898 482.219C249.503 481.625 249.8 480.899 249.8 480.03C249.8 479.172 249.503 478.457 248.898 477.874C248.293 477.291 247.567 477.005 246.72 477.005ZM245.433 478.732C245.763 478.369 246.192 478.193 246.709 478.193C247.226 478.193 247.655 478.369 247.974 478.732C248.304 479.095 248.469 479.535 248.469 480.052C248.469 480.569 248.304 481.009 247.985 481.372C247.666 481.735 247.237 481.911 246.72 481.911C246.203 481.911 245.774 481.724 245.444 481.361C245.114 480.987 244.949 480.547 244.949 480.03C244.949 479.513 245.114 479.084 245.433 478.732ZM250.141 483H251.637L253.111 480.954L254.596 483H256.103L253.881 480.008L256.026 477.126H254.552L253.133 479.073L251.725 477.126H250.218L252.374 480.03L250.141 483ZM257.185 475.828C257.526 476.169 258.054 476.169 258.395 475.828C258.736 475.487 258.736 474.959 258.395 474.618C258.054 474.266 257.526 474.266 257.185 474.618C256.844 474.959 256.844 475.487 257.185 475.828ZM258.45 477.126H257.141V483H258.45V477.126ZM262.864 483.099C263.579 483.099 264.162 482.923 264.613 482.571C265.064 482.219 265.383 481.801 265.548 481.328L264.404 480.822C264.129 481.548 263.623 481.911 262.886 481.911C262.391 481.911 261.973 481.735 261.643 481.383C261.313 481.031 261.148 480.58 261.148 480.03C261.148 479.491 261.313 479.051 261.643 478.71C261.984 478.369 262.391 478.193 262.875 478.193C263.623 478.193 264.129 478.556 264.382 479.271L265.504 478.765C265.152 477.72 264.184 477.005 262.864 477.005C261.995 477.005 261.269 477.302 260.686 477.907C260.103 478.512 259.806 479.227 259.806 480.052C259.806 480.921 260.103 481.647 260.686 482.23C261.269 482.813 261.995 483.099 262.864 483.099ZM269.515 477.005C268.657 477.005 267.92 477.302 267.315 477.885C266.71 478.468 266.402 479.194 266.402 480.052C266.402 480.91 266.699 481.636 267.304 482.219C267.909 482.802 268.646 483.099 269.504 483.099C270.373 483.099 271.099 482.802 271.693 482.219C272.298 481.625 272.595 480.899 272.595 480.03C272.595 479.172 272.298 478.457 271.693 477.874C271.088 477.291 270.362 477.005 269.515 477.005ZM268.228 478.732C268.558 478.369 268.987 478.193 269.504 478.193C270.021 478.193 270.45 478.369 270.769 478.732C271.099 479.095 271.264 479.535 271.264 480.052C271.264 480.569 271.099 481.009 270.78 481.372C270.461 481.735 270.032 481.911 269.515 481.911C268.998 481.911 268.569 481.724 268.239 481.361C267.909 480.987 267.744 480.547 267.744 480.03C267.744 479.513 267.909 479.084 268.228 478.732ZM273.963 483H275.272V474.046H273.963V483ZM279.731 477.005C278.873 477.005 278.136 477.302 277.531 477.885C276.926 478.468 276.618 479.194 276.618 480.052C276.618 480.91 276.915 481.636 277.52 482.219C278.125 482.802 278.862 483.099 279.72 483.099C280.589 483.099 281.315 482.802 281.909 482.219C282.514 481.625 282.811 480.899 282.811 480.03C282.811 479.172 282.514 478.457 281.909 477.874C281.304 477.291 280.578 477.005 279.731 477.005ZM278.444 478.732C278.774 478.369 279.203 478.193 279.72 478.193C280.237 478.193 280.666 478.369 280.985 478.732C281.315 479.095 281.48 479.535 281.48 480.052C281.48 480.569 281.315 481.009 280.996 481.372C280.677 481.735 280.248 481.911 279.731 481.911C279.214 481.911 278.785 481.724 278.455 481.361C278.125 480.987 277.96 480.547 277.96 480.03C277.96 479.513 278.125 479.084 278.444 478.732ZM286.632 483.044C286.94 483.044 287.281 482.967 287.666 482.802C288.051 482.637 288.348 482.395 288.557 482.054V482.978C288.557 484.155 287.798 484.771 286.775 484.771C285.95 484.771 285.334 484.353 284.927 483.528L283.838 484.155C284.377 485.343 285.367 485.937 286.797 485.937C287.721 485.937 288.458 485.662 289.019 485.123C289.58 484.584 289.866 483.847 289.866 482.923V477.126H288.59V478.017C288.381 477.687 288.084 477.445 287.71 477.28C287.336 477.115 286.995 477.027 286.676 477.027C285.807 477.027 285.103 477.335 284.564 477.951C284.036 478.567 283.772 479.26 283.772 480.041C283.772 480.855 284.036 481.559 284.575 482.153C285.114 482.747 285.807 483.044 286.632 483.044ZM288.579 480.019C288.579 480.536 288.414 480.976 288.084 481.339C287.765 481.691 287.347 481.867 286.83 481.867C286.313 481.867 285.895 481.691 285.565 481.339C285.246 480.976 285.081 480.536 285.081 480.019C285.081 479.502 285.246 479.062 285.565 478.721C285.884 478.369 286.313 478.193 286.83 478.193C287.347 478.193 287.776 478.369 288.095 478.721C288.414 479.073 288.579 479.502 288.579 480.019ZM292.415 477.126H290.919L293.537 482.34L291.92 485.893H293.317L297.354 477.126H295.935L294.241 480.976L292.415 477.126Z" fill="#909DBC"/>
<defs>
<filter id="filter0_d_4918:2983" x="0" y="0" width="595" height="618" filterUnits="userSpaceOnUse" color-interpolation-filters="sRGB">
<feFlood flood-opacity="0" result="BackgroundImageFix"/>
<feColorMatrix in="SourceAlpha" type="matrix" values="0 0 0 0 0 0 0 0 0 0 0 0 0 0 0 0 0 0 127 0" result="hardAlpha"/>
<feOffset dy="30"/>
<feGaussianBlur stdDeviation="30"/>
<feColorMatrix type="matrix" values="0 0 0 0 0.0862745 0 0 0 0 0.172549 0 0 0 0 0.356863 0 0 0 0.08 0"/>
<feBlend mode="normal" in2="BackgroundImageFix" result="effect1_dropShadow_4918:2983"/>
<feBlend mode="normal" in="SourceGraphic" in2="effect1_dropShadow_4918:2983" result="shape"/>
</filter>
<linearGradient id="paint0_linear_4918:2983" x1="139" y1="41" x2="139" y2="518" gradientUnits="userSpaceOnUse">
<stop stop-color="#4776E7"/>
<stop offset="1" stop-color="#47ADE7"/>
</linearGradient>
<clipPath id="clip0_4918:2983">
<rect width="72" height="16" fill="white" transform="translate(90 85)"/>
</clipPath>
</defs>
</svg>
