<svg width="138" height="138" viewBox="0 0 138 138" fill="none" xmlns="http://www.w3.org/2000/svg">
<g opacity="0.2">
<circle cx="1.5" cy="1.5" r="1.5" fill="#162C5B"/>
<circle cx="16.5" cy="1.5" r="1.5" fill="#162C5B"/>
<circle cx="31.5" cy="1.5" r="1.5" fill="#162C5B"/>
<circle cx="46.5" cy="1.5" r="1.5" fill="#162C5B"/>
<circle cx="61.5" cy="1.5" r="1.5" fill="#162C5B"/>
<circle cx="76.5" cy="1.5" r="1.5" fill="#162C5B"/>
<circle cx="91.5" cy="1.5" r="1.5" fill="#162C5B"/>
<circle cx="106.5" cy="1.5" r="1.5" fill="#162C5B"/>
<circle cx="121.5" cy="1.5" r="1.5" fill="#162C5B"/>
<circle cx="136.5" cy="1.5" r="1.5" fill="#162C5B"/>
<circle cx="1.5" cy="16.5" r="1.5" fill="#162C5B"/>
<circle cx="16.5" cy="16.5" r="1.5" fill="#162C5B"/>
<circle cx="31.5" cy="16.5" r="1.5" fill="#162C5B"/>
<circle cx="46.5" cy="16.5" r="1.5" fill="#162C5B"/>
<circle cx="61.5" cy="16.5" r="1.5" fill="#162C5B"/>
<circle cx="76.5" cy="16.5" r="1.5" fill="#162C5B"/>
<circle cx="91.5" cy="16.5" r="1.5" fill="#162C5B"/>
<circle cx="106.5" cy="16.5" r="1.5" fill="#162C5B"/>
<circle cx="121.5" cy="16.5" r="1.5" fill="#162C5B"/>
<circle cx="136.5" cy="16.5" r="1.5" fill="#162C5B"/>
<circle cx="1.5" cy="31.5" r="1.5" fill="#162C5B"/>
<circle cx="16.5" cy="31.5" r="1.5" fill="#162C5B"/>
<circle cx="31.5" cy="31.5" r="1.5" fill="#162C5B"/>
<circle cx="46.5" cy="31.5" r="1.5" fill="#162C5B"/>
<circle cx="61.5" cy="31.5" r="1.5" fill="#162C5B"/>
<circle cx="76.5" cy="31.5" r="1.5" fill="#162C5B"/>
<circle cx="91.5" cy="31.5" r="1.5" fill="#162C5B"/>
<circle cx="106.5" cy="31.5" r="1.5" fill="#162C5B"/>
<circle cx="121.5" cy="31.5" r="1.5" fill="#162C5B"/>
<circle cx="136.5" cy="31.5" r="1.5" fill="#162C5B"/>
<circle cx="1.5" cy="46.5" r="1.5" fill="#162C5B"/>
<circle cx="16.5" cy="46.5" r="1.5" fill="#162C5B"/>
<circle cx="31.5" cy="46.5" r="1.5" fill="#162C5B"/>
<circle cx="46.5" cy="46.5" r="1.5" fill="#162C5B"/>
<circle cx="61.5" cy="46.5" r="1.5" fill="#162C5B"/>
<circle cx="76.5" cy="46.5" r="1.5" fill="#162C5B"/>
<circle cx="91.5" cy="46.5" r="1.5" fill="#162C5B"/>
<circle cx="106.5" cy="46.5" r="1.5" fill="#162C5B"/>
<circle cx="121.5" cy="46.5" r="1.5" fill="#162C5B"/>
<circle cx="136.5" cy="46.5" r="1.5" fill="#162C5B"/>
<circle cx="1.5" cy="61.5" r="1.5" fill="#162C5B"/>
<circle cx="16.5" cy="61.5" r="1.5" fill="#162C5B"/>
<circle cx="31.5" cy="61.5" r="1.5" fill="#162C5B"/>
<circle cx="46.5" cy="61.5" r="1.5" fill="#162C5B"/>
<circle cx="61.5" cy="61.5" r="1.5" fill="#162C5B"/>
<circle cx="76.5" cy="61.5" r="1.5" fill="#162C5B"/>
<circle cx="91.5" cy="61.5" r="1.5" fill="#162C5B"/>
<circle cx="106.5" cy="61.5" r="1.5" fill="#162C5B"/>
<circle cx="121.5" cy="61.5" r="1.5" fill="#162C5B"/>
<circle cx="136.5" cy="61.5" r="1.5" fill="#162C5B"/>
<circle cx="1.5" cy="76.5" r="1.5" fill="#162C5B"/>
<circle cx="16.5" cy="76.5" r="1.5" fill="#162C5B"/>
<circle cx="31.5" cy="76.5" r="1.5" fill="#162C5B"/>
<circle cx="46.5" cy="76.5" r="1.5" fill="#162C5B"/>
<circle cx="61.5" cy="76.5" r="1.5" fill="#162C5B"/>
<circle cx="76.5" cy="76.5" r="1.5" fill="#162C5B"/>
<circle cx="91.5" cy="76.5" r="1.5" fill="#162C5B"/>
<circle cx="106.5" cy="76.5" r="1.5" fill="#162C5B"/>
<circle cx="121.5" cy="76.5" r="1.5" fill="#162C5B"/>
<circle cx="136.5" cy="76.5" r="1.5" fill="#162C5B"/>
<circle cx="1.5" cy="91.5" r="1.5" fill="#162C5B"/>
<circle cx="16.5" cy="91.5" r="1.5" fill="#162C5B"/>
<circle cx="31.5" cy="91.5" r="1.5" fill="#162C5B"/>
<circle cx="46.5" cy="91.5" r="1.5" fill="#162C5B"/>
<circle cx="61.5" cy="91.5" r="1.5" fill="#162C5B"/>
<circle cx="76.5" cy="91.5" r="1.5" fill="#162C5B"/>
<circle cx="91.5" cy="91.5" r="1.5" fill="#162C5B"/>
<circle cx="106.5" cy="91.5" r="1.5" fill="#162C5B"/>
<circle cx="121.5" cy="91.5" r="1.5" fill="#162C5B"/>
<circle cx="136.5" cy="91.5" r="1.5" fill="#162C5B"/>
<circle cx="1.5" cy="106.5" r="1.5" fill="#162C5B"/>
<circle cx="16.5" cy="106.5" r="1.5" fill="#162C5B"/>
<circle cx="31.5" cy="106.5" r="1.5" fill="#162C5B"/>
<circle cx="46.5" cy="106.5" r="1.5" fill="#162C5B"/>
<circle cx="61.5" cy="106.5" r="1.5" fill="#162C5B"/>
<circle cx="76.5" cy="106.5" r="1.5" fill="#162C5B"/>
<circle cx="91.5" cy="106.5" r="1.5" fill="#162C5B"/>
<circle cx="106.5" cy="106.5" r="1.5" fill="#162C5B"/>
<circle cx="121.5" cy="106.5" r="1.5" fill="#162C5B"/>
<circle cx="136.5" cy="106.5" r="1.5" fill="#162C5B"/>
<circle cx="1.5" cy="121.5" r="1.5" fill="#162C5B"/>
<circle cx="16.5" cy="121.5" r="1.5" fill="#162C5B"/>
<circle cx="31.5" cy="121.5" r="1.5" fill="#162C5B"/>
<circle cx="46.5" cy="121.5" r="1.5" fill="#162C5B"/>
<circle cx="61.5" cy="121.5" r="1.5" fill="#162C5B"/>
<circle cx="76.5" cy="121.5" r="1.5" fill="#162C5B"/>
<circle cx="91.5" cy="121.5" r="1.5" fill="#162C5B"/>
<circle cx="106.5" cy="121.5" r="1.5" fill="#162C5B"/>
<circle cx="121.5" cy="121.5" r="1.5" fill="#162C5B"/>
<circle cx="136.5" cy="121.5" r="1.5" fill="#162C5B"/>
<circle cx="1.5" cy="136.5" r="1.5" fill="#162C5B"/>
<circle cx="16.5" cy="136.5" r="1.5" fill="#162C5B"/>
<circle cx="31.5" cy="136.5" r="1.5" fill="#162C5B"/>
<circle cx="46.5" cy="136.5" r="1.5" fill="#162C5B"/>
<circle cx="61.5" cy="136.5" r="1.5" fill="#162C5B"/>
<circle cx="76.5" cy="136.5" r="1.5" fill="#162C5B"/>
<circle cx="91.5" cy="136.5" r="1.5" fill="#162C5B"/>
<circle cx="106.5" cy="136.5" r="1.5" fill="#162C5B"/>
<circle cx="121.5" cy="136.5" r="1.5" fill="#162C5B"/>
<circle cx="136.5" cy="136.5" r="1.5" fill="#162C5B"/>
</g>
</svg>
