<svg width="50" height="49" viewBox="0 0 50 49" fill="none" xmlns="http://www.w3.org/2000/svg">
<g filter="url(#filter0_b_4911:2097)">
<path d="M24.5521 10.5717L14.6519 13.3294C11.0441 14.3344 9.54766 17.0286 10.5143 20.7789L13.1643 31.0603C14.1309 34.8106 16.7227 36.366 20.3304 35.361L30.2307 32.6032C33.8385 31.5983 35.3255 28.9067 34.3589 25.1564L31.7089 14.875C30.7423 11.1247 28.1599 9.56668 24.5521 10.5717Z" fill="url(#paint0_linear_4911:2097)"/>
</g>
<g opacity="0.5" filter="url(#filter1_f_4911:2097)">
<path d="M29.4302 24.0456L27.6324 16.9658C26.9803 14.3978 25.3481 13.2463 23.2021 13.8353L15.9337 15.83C13.7525 16.4287 12.9078 18.2599 13.56 20.8279L15.3578 27.9077C16.0204 30.5172 17.6137 31.6341 19.7949 31.0355L27.0634 29.0407C29.2094 28.4518 30.0929 26.6551 29.4302 24.0456Z" fill="#FF624D"/>
</g>
<g filter="url(#filter2_b_4911:2097)">
<mask id="path-3-outside-1_4911:2097" maskUnits="userSpaceOnUse" x="16.0596" y="14.4219" width="24" height="25" fill="black">
<rect fill="white" x="16.0596" y="14.4219" width="24" height="25"/>
<path d="M33.1588 15.4219H22.9103C19.1756 15.4219 17.0596 17.6217 17.0596 21.5042V32.1483C17.0596 36.0309 19.1756 38.2306 22.9103 38.2306H33.1588C36.8935 38.2306 38.9998 36.0309 38.9998 32.1483V21.5042C38.9998 17.6217 36.8935 15.4219 33.1588 15.4219"/>
</mask>
<path d="M33.1588 15.4219H22.9103C19.1756 15.4219 17.0596 17.6217 17.0596 21.5042V32.1483C17.0596 36.0309 19.1756 38.2306 22.9103 38.2306H33.1588C36.8935 38.2306 38.9998 36.0309 38.9998 32.1483V21.5042C38.9998 17.6217 36.8935 15.4219 33.1588 15.4219" fill="#FFAC95" fill-opacity="0.4"/>
<path d="M33.1588 16.4219C33.7111 16.4219 34.1588 15.9742 34.1588 15.4219C34.1588 14.8696 33.7111 14.4219 33.1588 14.4219V16.4219ZM33.1588 14.4219C32.6065 14.4219 32.1588 14.8696 32.1588 15.4219C32.1588 15.9742 32.6065 16.4219 33.1588 16.4219V14.4219ZM33.1588 14.4219H22.9103V16.4219H33.1588V14.4219ZM22.9103 14.4219C20.8461 14.4219 19.0945 15.0343 17.8637 16.3138C16.6384 17.5876 16.0596 19.3874 16.0596 21.5042H18.0596C18.0596 19.7385 18.5387 18.4971 19.3051 17.7003C20.066 16.9093 21.2398 16.4219 22.9103 16.4219V14.4219ZM16.0596 21.5042V32.1483H18.0596V21.5042H16.0596ZM16.0596 32.1483C16.0596 34.2652 16.6384 36.0649 17.8637 37.3387C19.0945 38.6182 20.8461 39.2306 22.9103 39.2306V37.2306C21.2398 37.2306 20.066 36.7432 19.3051 35.9522C18.5387 35.1555 18.0596 33.914 18.0596 32.1483H16.0596ZM22.9103 39.2306H33.1588V37.2306H22.9103V39.2306ZM33.1588 39.2306C35.2231 39.2306 36.9728 38.6181 38.2014 37.3378C39.424 36.0636 39.9998 34.264 39.9998 32.1483H37.9998C37.9998 33.9152 37.5224 35.1567 36.7583 35.9531C36 36.7433 34.8292 37.2306 33.1588 37.2306V39.2306ZM39.9998 32.1483V21.5042H37.9998V32.1483H39.9998ZM39.9998 21.5042C39.9998 19.3886 39.424 17.5889 38.2014 16.3147C36.9728 15.0344 35.2231 14.4219 33.1588 14.4219V16.4219C34.8292 16.4219 36 16.9092 36.7583 17.6995C37.5224 18.4958 37.9998 19.7373 37.9998 21.5042H39.9998Z" fill="url(#paint1_linear_4911:2097)" mask="url(#path-3-outside-1_4911:2097)"/>
</g>
<g filter="url(#filter3_bd_4911:2097)">
<mask id="path-5-inside-2_4911:2097" fill="white">
<path fill-rule="evenodd" clip-rule="evenodd" d="M28.0683 20.0852C27.571 20.0852 27.1615 20.511 27.1615 21.0381V32.6148C27.1615 33.1318 27.571 33.5576 28.0683 33.5576C28.5754 33.5576 28.985 33.1318 28.985 32.6148V21.0381C28.985 20.511 28.5754 20.0852 28.0683 20.0852ZM22.9489 23.8262C22.4515 23.8262 22.042 24.2519 22.042 24.7791V32.6152C22.042 33.1322 22.4515 33.5579 22.9489 33.5579C23.4559 33.5579 23.8655 33.1322 23.8655 32.6152V24.7791C23.8655 24.2519 23.4559 23.8262 22.9489 23.8262ZM32.2029 28.915C32.2029 28.3879 32.6125 27.9621 33.1195 27.9621C33.6169 27.9621 34.0264 28.3879 34.0264 28.915V32.6151C34.0264 33.1321 33.6169 33.5579 33.1098 33.5579C32.6125 33.5579 32.2029 33.1321 32.2029 32.6151V28.915Z"/>
</mask>
<path fill-rule="evenodd" clip-rule="evenodd" d="M28.0683 20.0852C27.571 20.0852 27.1615 20.511 27.1615 21.0381V32.6148C27.1615 33.1318 27.571 33.5576 28.0683 33.5576C28.5754 33.5576 28.985 33.1318 28.985 32.6148V21.0381C28.985 20.511 28.5754 20.0852 28.0683 20.0852ZM22.9489 23.8262C22.4515 23.8262 22.042 24.2519 22.042 24.7791V32.6152C22.042 33.1322 22.4515 33.5579 22.9489 33.5579C23.4559 33.5579 23.8655 33.1322 23.8655 32.6152V24.7791C23.8655 24.2519 23.4559 23.8262 22.9489 23.8262ZM32.2029 28.915C32.2029 28.3879 32.6125 27.9621 33.1195 27.9621C33.6169 27.9621 34.0264 28.3879 34.0264 28.915V32.6151C34.0264 33.1321 33.6169 33.5579 33.1098 33.5579C32.6125 33.5579 32.2029 33.1321 32.2029 32.6151V28.915Z" fill="url(#paint2_linear_4911:2097)"/>
<path d="M27.5615 21.0381C27.5615 20.7143 27.8092 20.4852 28.0683 20.4852V19.6852C27.3329 19.6852 26.7615 20.3077 26.7615 21.0381H27.5615ZM27.5615 32.6148V21.0381H26.7615V32.6148H27.5615ZM28.0683 33.1576C27.8064 33.1576 27.5615 32.9257 27.5615 32.6148H26.7615C26.7615 33.338 27.3356 33.9576 28.0683 33.9576V33.1576ZM28.585 32.6148C28.585 32.9229 28.3427 33.1576 28.0683 33.1576V33.9576C28.8081 33.9576 29.385 33.3408 29.385 32.6148H28.585ZM28.585 21.0381V32.6148H29.385V21.0381H28.585ZM28.0683 20.4852C28.34 20.4852 28.585 20.7171 28.585 21.0381H29.385C29.385 20.3048 28.8108 19.6852 28.0683 19.6852V20.4852ZM22.442 24.7791C22.442 24.4552 22.6897 24.2262 22.9489 24.2262V23.4262C22.2134 23.4262 21.642 24.0486 21.642 24.7791H22.442ZM22.442 32.6152V24.7791H21.642V32.6152H22.442ZM22.9489 33.1579C22.687 33.1579 22.442 32.926 22.442 32.6152H21.642C21.642 33.3383 22.2161 33.9579 22.9489 33.9579V33.1579ZM23.4655 32.6152C23.4655 32.9232 23.2232 33.1579 22.9489 33.1579V33.9579C23.6886 33.9579 24.2655 33.3411 24.2655 32.6152H23.4655ZM23.4655 24.7791V32.6152H24.2655V24.7791H23.4655ZM22.9489 24.2262C23.2205 24.2262 23.4655 24.4581 23.4655 24.7791H24.2655C24.2655 24.0458 23.6913 23.4262 22.9489 23.4262V24.2262ZM33.1195 27.5621C32.3771 27.5621 31.8029 28.1817 31.8029 28.915H32.6029C32.6029 28.594 32.8479 28.3621 33.1195 28.3621V27.5621ZM34.4264 28.915C34.4264 28.1846 33.855 27.5621 33.1195 27.5621V28.3621C33.3787 28.3621 33.6264 28.5912 33.6264 28.915H34.4264ZM34.4264 32.6151V28.915H33.6264V32.6151H34.4264ZM33.1098 33.9579C33.8495 33.9579 34.4264 33.3411 34.4264 32.6151H33.6264C33.6264 32.9231 33.3842 33.1579 33.1098 33.1579V33.9579ZM31.8029 32.6151C31.8029 33.3382 32.3771 33.9579 33.1098 33.9579V33.1579C32.8479 33.1579 32.6029 32.926 32.6029 32.6151H31.8029ZM31.8029 28.915V32.6151H32.6029V28.915H31.8029Z" fill="url(#paint3_linear_4911:2097)" mask="url(#path-5-inside-2_4911:2097)"/>
</g>
<defs>
<filter id="filter0_b_4911:2097" x="-2.77295" y="-2.72681" width="50.4199" height="51.3865" filterUnits="userSpaceOnUse" color-interpolation-filters="sRGB">
<feFlood flood-opacity="0" result="BackgroundImageFix"/>
<feGaussianBlur in="BackgroundImage" stdDeviation="6.5"/>
<feComposite in2="SourceAlpha" operator="in" result="effect1_backgroundBlur_4911:2097"/>
<feBlend mode="normal" in="SourceGraphic" in2="effect1_backgroundBlur_4911:2097" result="shape"/>
</filter>
<filter id="filter1_f_4911:2097" x="0.345215" y="0.684082" width="42.3008" height="43.5093" filterUnits="userSpaceOnUse" color-interpolation-filters="sRGB">
<feFlood flood-opacity="0" result="BackgroundImageFix"/>
<feBlend mode="normal" in="SourceGraphic" in2="BackgroundImageFix" result="shape"/>
<feGaussianBlur stdDeviation="6.5" result="effect1_foregroundBlur_4911:2097"/>
</filter>
<filter id="filter2_b_4911:2097" x="1.05957" y="-0.578125" width="53.9404" height="54.8088" filterUnits="userSpaceOnUse" color-interpolation-filters="sRGB">
<feFlood flood-opacity="0" result="BackgroundImageFix"/>
<feGaussianBlur in="BackgroundImage" stdDeviation="7.5"/>
<feComposite in2="SourceAlpha" operator="in" result="effect1_backgroundBlur_4911:2097"/>
<feBlend mode="normal" in="SourceGraphic" in2="effect1_backgroundBlur_4911:2097" result="shape"/>
</filter>
<filter id="filter3_bd_4911:2097" x="7.04199" y="5.08521" width="41.9844" height="43.4727" filterUnits="userSpaceOnUse" color-interpolation-filters="sRGB">
<feFlood flood-opacity="0" result="BackgroundImageFix"/>
<feGaussianBlur in="BackgroundImage" stdDeviation="7.5"/>
<feComposite in2="SourceAlpha" operator="in" result="effect1_backgroundBlur_4911:2097"/>
<feColorMatrix in="SourceAlpha" type="matrix" values="0 0 0 0 0 0 0 0 0 0 0 0 0 0 0 0 0 0 127 0" result="hardAlpha"/>
<feOffset dx="5" dy="5"/>
<feGaussianBlur stdDeviation="5"/>
<feColorMatrix type="matrix" values="0 0 0 0 1 0 0 0 0 0.447059 0 0 0 0 0.368627 0 0 0 0.5 0"/>
<feBlend mode="normal" in2="effect1_backgroundBlur_4911:2097" result="effect2_dropShadow_4911:2097"/>
<feBlend mode="normal" in="SourceGraphic" in2="effect2_dropShadow_4911:2097" result="shape"/>
</filter>
<linearGradient id="paint0_linear_4911:2097" x1="24.3772" y1="24.0083" x2="7.64422" y2="37.9668" gradientUnits="userSpaceOnUse">
<stop stop-color="#FFA78F"/>
<stop offset="1" stop-color="#F23E2C"/>
</linearGradient>
<linearGradient id="paint1_linear_4911:2097" x1="20.5521" y1="18.0791" x2="35.2106" y2="35.5427" gradientUnits="userSpaceOnUse">
<stop stop-color="white" stop-opacity="0.25"/>
<stop offset="1" stop-color="white" stop-opacity="0"/>
</linearGradient>
<linearGradient id="paint2_linear_4911:2097" x1="18.9398" y1="30.0849" x2="24.9147" y2="41.892" gradientUnits="userSpaceOnUse">
<stop stop-color="white"/>
<stop offset="1" stop-color="white" stop-opacity="0.2"/>
</linearGradient>
<linearGradient id="paint3_linear_4911:2097" x1="23.9497" y1="21.6548" x2="32.7002" y2="31.2952" gradientUnits="userSpaceOnUse">
<stop stop-color="white" stop-opacity="0.25"/>
<stop offset="1" stop-color="white" stop-opacity="0"/>
</linearGradient>
</defs>
</svg>
