<svg width="83" height="82" viewBox="0 0 83 82" fill="none" xmlns="http://www.w3.org/2000/svg">
<circle cx="41.7246" cy="41" r="41" fill="#C4C4C4"/>
<path d="M33.5927 23C35.3533 23 36.922 23.8013 38.3101 25.4148C39.6983 27.0175 40.3867 29.1399 40.3867 31.7822C40.3867 34.0237 39.1227 37.4565 36.606 42.0696C34.078 46.6935 32.2046 49 30.9744 49C30.286 49 29.9361 48.6535 29.9361 47.9713C29.9361 47.7872 30.6584 46.2928 32.0917 43.4773C33.5363 40.6618 34.2473 38.4527 34.2473 36.8717C34.2473 35.6481 33.4347 34.641 31.7983 33.8613C30.1732 33.0816 29.0784 32.2695 28.5367 31.4248C27.995 30.5802 27.7242 29.6597 27.7242 28.6851C27.7242 26.92 28.2659 25.5231 29.3493 24.516C30.4666 23.5089 31.866 23 33.5927 23Z" fill="#19BBCD"/>
<path d="M49.7978 23C51.5584 23 53.1384 23.8013 54.5152 25.4148C55.9034 27.0175 56.5918 29.1399 56.5918 31.7822C56.5918 34.0237 55.3278 37.4565 52.8111 42.0696C50.2944 46.6935 48.4097 49 47.1908 49C46.5024 49 46.1526 48.6535 46.1526 47.9713C46.1526 47.7872 46.8748 46.2928 48.3081 43.4773C49.7527 40.6618 50.4637 38.4527 50.4637 36.8717C50.4637 35.6481 49.6511 34.641 48.0147 33.8613C46.3896 33.0816 45.2949 32.2695 44.7531 31.4248C44.2114 30.5802 43.9406 29.6597 43.9406 28.6851C43.9406 26.92 44.4823 25.5231 45.5657 24.516C46.6491 23.5089 48.0711 23 49.7978 23Z" fill="#19BBCD"/>
</svg>
