<svg width="135" height="30" viewBox="0 0 135 30" fill="none" xmlns="http://www.w3.org/2000/svg">
<g clip-path="url(#clip0_4809:2836)">
<path d="M0 0.000275865L22.107 14.5577L31.5483 12.4048L0 0.000275865Z" fill="#86AEFC"/>
<path d="M22.1072 14.5578L10.3408 25.4864L8.65625 30.0008L31.5486 12.4048L22.1072 14.5578Z" fill="#4776E7"/>
<path d="M22.1069 14.5577H18.3216L0 0.000275865L22.1069 14.5577Z" fill="#47B9C0"/>
<path d="M22.1068 14.5577L10.3403 25.4863L18.3215 14.5577H22.1068Z" fill="#5CEDDC"/>
<path d="M10.3405 25.4864L4.64404 16.9191L8.65582 30.0008L10.3405 25.4864Z" fill="#86AEFC"/>
<path d="M34.8657 7.75427L36.4231 10.2812H44.541C45.6883 10.2812 46.7265 10.4704 47.6571 10.8485C48.5879 11.2269 49.3823 11.7716 50.0413 12.4843C50.7 13.1957 51.2059 14.0673 51.5578 15.1022C51.9096 16.1364 52.0857 17.3051 52.0857 18.6061C52.0857 19.9192 51.9096 21.0917 51.5578 22.1253C51.2059 23.1609 50.7 24.0319 50.0413 24.7434C49.3823 25.4552 48.5879 26.0009 47.6571 26.3803C46.7265 26.7578 45.6883 26.9477 44.541 26.9477H39.547V14.5465H36.4231V29.4747H44.541C46.1415 29.4747 47.5993 29.2142 48.9174 28.6957C50.2346 28.1749 51.3637 27.4382 52.305 26.4846C53.2446 25.5318 53.9744 24.3858 54.4929 23.0493C55.0108 21.713 55.2695 20.2315 55.2695 18.6061C55.2695 16.9926 55.0108 15.5159 54.4929 14.1782C53.9744 12.8422 53.2446 11.7003 52.305 10.7511C51.3637 9.80173 50.2346 9.06579 48.9174 8.54035C47.5993 8.01602 46.1415 7.75427 44.541 7.75427H34.8657Z" fill="url(#paint0_linear_4809:2836)"/>
<path d="M61.6367 7.75427V29.4747H75.0366L75.0517 26.9314H64.7604V19.7409H73.0446V17.2902H64.7604V10.2969H75.0366V7.75427H61.6367Z" fill="url(#paint1_linear_4809:2836)"/>
<path d="M96.2524 7.75427V22.7396C96.2524 22.9707 96.2596 23.2232 96.2751 23.4955C96.2895 23.7685 96.3064 24.0404 96.3266 24.3125L83.9999 8.28273C83.8289 8.05115 83.6758 7.90457 83.5394 7.84451C83.4033 7.78485 83.2003 7.75427 82.9289 7.75427H81.3145V29.4747H84.0448V14.3828C84.0448 14.1627 84.0371 13.9214 84.022 13.664C84.007 13.4077 83.9894 13.1464 83.9691 12.8853L96.3122 28.9142C96.4727 29.1162 96.6371 29.26 96.8034 29.3459C96.969 29.4317 97.1726 29.4747 97.4132 29.4747H98.9829V7.75427H96.2524Z" fill="url(#paint2_linear_4809:2836)"/>
<path d="M105.106 7.75427L106.664 10.2812H114.781C115.928 10.2812 116.966 10.4704 117.898 10.8485C118.828 11.2269 119.623 11.7716 120.281 12.4843C120.94 13.1957 121.445 14.0673 121.798 15.1022C122.15 16.1364 122.325 17.3051 122.325 18.6061C122.325 19.9192 122.15 21.0917 121.798 22.1253C121.445 23.1609 120.94 24.0319 120.281 24.7434C119.623 25.4552 118.828 26.0009 117.898 26.3803C116.966 26.7578 115.928 26.9477 114.781 26.9477H109.787V14.5465H106.664V29.4747H114.781C116.381 29.4747 117.839 29.2142 119.158 28.6957C120.475 28.1749 121.603 27.4382 122.545 26.4846C123.485 25.5318 124.214 24.3858 124.732 23.0493C125.251 21.713 125.51 20.2315 125.51 18.6061C125.51 16.9926 125.251 15.5159 124.732 14.1782C124.214 12.8422 123.485 11.7003 122.545 10.7511C121.603 9.80173 120.475 9.06579 119.158 8.54035C117.839 8.01602 116.381 7.75427 114.781 7.75427H105.106Z" fill="url(#paint3_linear_4809:2836)"/>
<path d="M131.876 29.4747H135V7.75413H131.876V29.4747Z" fill="url(#paint4_linear_4809:2836)"/>
</g>
<defs>
<linearGradient id="paint0_linear_4809:2836" x1="45.0677" y1="-5.10117" x2="45.0677" y2="54.5997" gradientUnits="userSpaceOnUse">
<stop stop-color="#86AEFC"/>
<stop offset="1" stop-color="#4776E7"/>
</linearGradient>
<linearGradient id="paint1_linear_4809:2836" x1="68.3444" y1="-5.10117" x2="68.3444" y2="54.5997" gradientUnits="userSpaceOnUse">
<stop stop-color="#86AEFC"/>
<stop offset="1" stop-color="#4776E7"/>
</linearGradient>
<linearGradient id="paint2_linear_4809:2836" x1="90.1486" y1="-5.10117" x2="90.1486" y2="54.5997" gradientUnits="userSpaceOnUse">
<stop stop-color="#86AEFC"/>
<stop offset="1" stop-color="#4776E7"/>
</linearGradient>
<linearGradient id="paint3_linear_4809:2836" x1="115.308" y1="-5.10117" x2="115.308" y2="54.5997" gradientUnits="userSpaceOnUse">
<stop stop-color="#86AEFC"/>
<stop offset="1" stop-color="#4776E7"/>
</linearGradient>
<linearGradient id="paint4_linear_4809:2836" x1="133.438" y1="-5.10118" x2="133.438" y2="54.5997" gradientUnits="userSpaceOnUse">
<stop stop-color="#86AEFC"/>
<stop offset="1" stop-color="#4776E7"/>
</linearGradient>
<clipPath id="clip0_4809:2836">
<rect width="135" height="30" fill="white"/>
</clipPath>
</defs>
</svg>
