<svg width="54" height="52" viewBox="0 0 54 52" fill="none" xmlns="http://www.w3.org/2000/svg">
<path d="M27.7777 12.3093C35.4445 12.3093 41 18.5642 41 25.5052C41 27.7221 40.3534 30.005 39.2186 32.09C39.0074 32.433 38.981 32.8685 39.1262 33.2776L40.0103 36.2335C40.2082 36.946 39.6012 37.4739 38.9282 37.2627L36.2627 36.471C35.5369 36.2335 34.9695 36.537 34.2952 36.946C32.3686 38.0809 29.9682 38.6615 27.8041 38.6615C21.259 38.6615 14.6082 33.6075 14.6082 25.4656C14.6082 18.4454 20.2825 12.3093 27.7777 12.3093Z" fill="url(#paint0_linear_5109:2484)"/>
<g opacity="0.5" filter="url(#filter0_f_5109:2484)">
<path d="M36.2038 25.6367C36.2038 30.3445 32.3884 34.159 27.6815 34.159C22.9746 34.159 19.1592 30.3445 19.1592 25.6367C19.1592 20.9307 22.9746 17.1144 27.6815 17.1144C32.3884 17.1144 36.2038 20.9307 36.2038 25.6367Z" fill="#8237FF"/>
</g>
<g filter="url(#filter1_b_5109:2484)">
<mask id="path-3-outside-1_5109:2484" maskUnits="userSpaceOnUse" x="0" y="1" width="36" height="36" fill="black">
<rect fill="white" y="1" width="36" height="36"/>
<path d="M17.8722 2C8.089 2 1 9.98144 1 18.8385C1 21.6673 1.82509 24.5804 3.27319 27.2409C3.54261 27.6787 3.57629 28.2343 3.39106 28.7563L2.26289 32.5282C2.01031 33.4374 2.78488 34.111 3.64364 33.8416L7.04501 32.8312C7.97113 32.5282 8.69518 32.9154 9.55563 33.4374C12.014 34.8855 15.077 35.6264 17.8385 35.6264C26.1904 35.6264 34.677 29.1773 34.677 18.788C34.677 9.82989 27.4364 2 17.8722 2Z"/>
</mask>
<path d="M17.8722 2C8.089 2 1 9.98144 1 18.8385C1 21.6673 1.82509 24.5804 3.27319 27.2409C3.54261 27.6787 3.57629 28.2343 3.39106 28.7563L2.26289 32.5282C2.01031 33.4374 2.78488 34.111 3.64364 33.8416L7.04501 32.8312C7.97113 32.5282 8.69518 32.9154 9.55563 33.4374C12.014 34.8855 15.077 35.6264 17.8385 35.6264C26.1904 35.6264 34.677 29.1773 34.677 18.788C34.677 9.82989 27.4364 2 17.8722 2Z" fill="#BA90FF" fill-opacity="0.35"/>
<path d="M17.8722 3C18.4244 3 18.8722 2.55228 18.8722 2C18.8722 1.44772 18.4244 1 17.8722 1V3ZM3.27319 27.2409L2.39487 27.7189C2.40335 27.7345 2.41224 27.7499 2.42154 27.765L3.27319 27.2409ZM3.39106 28.7563L2.44864 28.4219C2.44302 28.4377 2.43781 28.4537 2.433 28.4698L3.39106 28.7563ZM2.26289 32.5282L1.30482 32.2416C1.30294 32.2479 1.30112 32.2542 1.29937 32.2605L2.26289 32.5282ZM3.64364 33.8416L3.35891 32.8829C3.35403 32.8844 3.34916 32.8859 3.3443 32.8874L3.64364 33.8416ZM7.04501 32.8312L7.32975 33.7899C7.33855 33.7872 7.34732 33.7845 7.35605 33.7816L7.04501 32.8312ZM9.55563 33.4374L9.03691 34.2925L9.04809 34.2991L9.55563 33.4374ZM17.8722 1C17.3199 1 16.8722 1.44772 16.8722 2C16.8722 2.55228 17.3199 3 17.8722 3V1ZM17.8722 1C7.50382 1 0 9.46263 0 18.8385H2C2 10.5002 8.67418 3 17.8722 3V1ZM0 18.8385C0 21.8583 0.879196 24.9343 2.39487 27.7189L4.15151 26.7628C2.77097 24.2265 2 21.4764 2 18.8385H0ZM2.42154 27.765C2.5082 27.9058 2.54917 28.1386 2.44864 28.4219L4.33349 29.0907C4.6034 28.3301 4.57702 27.4516 4.12485 26.7168L2.42154 27.765ZM2.433 28.4698L1.30482 32.2416L3.22095 32.8147L4.34912 29.0429L2.433 28.4698ZM1.29937 32.2605C1.07836 33.0561 1.29823 33.8454 1.85871 34.3621C2.40797 34.8685 3.19449 35.0305 3.94298 34.7957L3.3443 32.8874C3.28588 32.9057 3.24967 32.9021 3.23404 32.8989C3.21732 32.8954 3.21277 32.8902 3.21431 32.8916C3.21663 32.8938 3.21737 32.8965 3.21664 32.8938C3.21619 32.8922 3.20785 32.8626 3.2264 32.7958L1.29937 32.2605ZM3.92838 34.8002L7.32975 33.7899L6.76028 31.8726L3.35891 32.8829L3.92838 34.8002ZM7.35605 33.7816C7.8014 33.6359 8.1512 33.7551 9.03696 34.2924L10.0743 32.5825C9.23917 32.0758 8.14086 31.4204 6.73397 31.8808L7.35605 33.7816ZM9.04809 34.2991C11.6759 35.847 14.9175 36.6264 17.8385 36.6264V34.6264C15.2364 34.6264 12.3522 33.9241 10.0632 32.5758L9.04809 34.2991ZM17.8385 36.6264C26.662 36.6264 35.677 29.8069 35.677 18.788H33.677C33.677 28.5477 25.7187 34.6264 17.8385 34.6264V36.6264ZM35.677 18.788C35.677 9.29992 28.0107 1 17.8722 1V3C26.8621 3 33.677 10.3599 33.677 18.788H35.677Z" fill="url(#paint1_linear_5109:2484)" mask="url(#path-3-outside-1_5109:2484)"/>
</g>
<g filter="url(#filter2_bd_5109:2484)">
<mask id="path-5-inside-2_5109:2484" fill="white">
<path fill-rule="evenodd" clip-rule="evenodd" d="M17.8055 21.0104C16.6099 20.9936 15.6501 20.0338 15.6501 18.8383C15.6501 17.6596 16.6268 16.683 17.8055 16.6998C19.001 16.6998 19.9608 17.6596 19.9608 18.8551C19.9608 20.0338 19.001 21.0104 17.8055 21.0104ZM10.042 21.0108C8.86335 21.0108 7.88672 20.0342 7.88672 18.8555C7.88672 17.66 8.84651 16.7002 10.042 16.7002C11.2376 16.7002 12.1974 17.66 12.1974 18.8555C12.1974 20.0342 11.2376 20.994 10.042 21.0108ZM23.412 18.8552C23.412 20.0338 24.3718 21.0105 25.5674 21.0105C26.7629 21.0105 27.7227 20.0338 27.7227 18.8552C27.7227 17.6596 26.7629 16.6998 25.5674 16.6998C24.3718 16.6998 23.412 17.6596 23.412 18.8552Z"/>
</mask>
<path fill-rule="evenodd" clip-rule="evenodd" d="M17.8055 21.0104C16.6099 20.9936 15.6501 20.0338 15.6501 18.8383C15.6501 17.6596 16.6268 16.683 17.8055 16.6998C19.001 16.6998 19.9608 17.6596 19.9608 18.8551C19.9608 20.0338 19.001 21.0104 17.8055 21.0104ZM10.042 21.0108C8.86335 21.0108 7.88672 20.0342 7.88672 18.8555C7.88672 17.66 8.84651 16.7002 10.042 16.7002C11.2376 16.7002 12.1974 17.66 12.1974 18.8555C12.1974 20.0342 11.2376 20.994 10.042 21.0108ZM23.412 18.8552C23.412 20.0338 24.3718 21.0105 25.5674 21.0105C26.7629 21.0105 27.7227 20.0338 27.7227 18.8552C27.7227 17.6596 26.7629 16.6998 25.5674 16.6998C24.3718 16.6998 23.412 17.6596 23.412 18.8552Z" fill="url(#paint2_linear_5109:2484)"/>
<path d="M17.8055 21.0104L17.7998 21.4104H17.8055V21.0104ZM17.8055 16.6998L17.7997 17.0998H17.8055V16.6998ZM10.042 21.0108V21.4109L10.0477 21.4108L10.042 21.0108ZM15.2501 18.8383C15.2501 20.2558 16.3889 21.3905 17.7998 21.4104L17.8111 20.6105C16.831 20.5967 16.0501 19.8119 16.0501 18.8383H15.2501ZM17.8112 16.2998C16.406 16.2798 15.2501 17.4398 15.2501 18.8383H16.0501C16.0501 17.8794 16.8475 17.0862 17.7997 17.0998L17.8112 16.2998ZM20.3608 18.8551C20.3608 17.4387 19.2219 16.2998 17.8055 16.2998V17.0998C18.7801 17.0998 19.5608 17.8805 19.5608 18.8551H20.3608ZM17.8055 21.4104C19.2239 21.4104 20.3608 20.2527 20.3608 18.8551H19.5608C19.5608 19.8149 18.778 20.6104 17.8055 20.6104V21.4104ZM7.48672 18.8555C7.48672 20.2551 8.64244 21.4108 10.042 21.4108V20.6108C9.08426 20.6108 8.28672 19.8133 8.28672 18.8555H7.48672ZM10.042 16.3002C8.6256 16.3002 7.48672 17.4391 7.48672 18.8555H8.28672C8.28672 17.8809 9.06743 17.1002 10.042 17.1002V16.3002ZM12.5974 18.8555C12.5974 17.4391 11.4585 16.3002 10.042 16.3002V17.1002C11.0167 17.1002 11.7974 17.8809 11.7974 18.8555H12.5974ZM10.0477 21.4108C11.4566 21.391 12.5974 20.2582 12.5974 18.8555H11.7974C11.7974 19.8102 11.0185 20.597 10.0364 20.6109L10.0477 21.4108ZM25.5674 20.6105C24.5948 20.6105 23.812 19.815 23.812 18.8552H23.012C23.012 20.2527 24.1489 21.4105 25.5674 21.4105V20.6105ZM27.3227 18.8552C27.3227 19.815 26.5399 20.6105 25.5674 20.6105V21.4105C26.9858 21.4105 28.1227 20.2527 28.1227 18.8552H27.3227ZM25.5674 17.0998C26.542 17.0998 27.3227 17.8805 27.3227 18.8552H28.1227C28.1227 17.4387 26.9838 16.2998 25.5674 16.2998V17.0998ZM23.812 18.8552C23.812 17.8805 24.5927 17.0998 25.5674 17.0998V16.2998C24.1509 16.2998 23.012 17.4387 23.012 18.8552H23.812Z" fill="url(#paint3_linear_5109:2484)" mask="url(#path-5-inside-2_5109:2484)"/>
</g>
<defs>
<filter id="filter0_f_5109:2484" x="2.15918" y="0.11438" width="51.0449" height="51.0447" filterUnits="userSpaceOnUse" color-interpolation-filters="sRGB">
<feFlood flood-opacity="0" result="BackgroundImageFix"/>
<feBlend mode="normal" in="SourceGraphic" in2="BackgroundImageFix" result="shape"/>
<feGaussianBlur stdDeviation="8.5" result="effect1_foregroundBlur_5109:2484"/>
</filter>
<filter id="filter1_b_5109:2484" x="-24" y="-23" width="83.6768" height="83.6265" filterUnits="userSpaceOnUse" color-interpolation-filters="sRGB">
<feFlood flood-opacity="0" result="BackgroundImageFix"/>
<feGaussianBlur in="BackgroundImage" stdDeviation="12"/>
<feComposite in2="SourceAlpha" operator="in" result="effect1_backgroundBlur_5109:2484"/>
<feBlend mode="normal" in="SourceGraphic" in2="effect1_backgroundBlur_5109:2484" result="shape"/>
</filter>
<filter id="filter2_bd_5109:2484" x="-7.11328" y="1.69958" width="49.8359" height="34.3113" filterUnits="userSpaceOnUse" color-interpolation-filters="sRGB">
<feFlood flood-opacity="0" result="BackgroundImageFix"/>
<feGaussianBlur in="BackgroundImage" stdDeviation="7.5"/>
<feComposite in2="SourceAlpha" operator="in" result="effect1_backgroundBlur_5109:2484"/>
<feColorMatrix in="SourceAlpha" type="matrix" values="0 0 0 0 0 0 0 0 0 0 0 0 0 0 0 0 0 0 127 0" result="hardAlpha"/>
<feOffset dx="5" dy="5"/>
<feGaussianBlur stdDeviation="5"/>
<feColorMatrix type="matrix" values="0 0 0 0 0.577356 0 0 0 0 0.359375 0 0 0 0 0.9375 0 0 0 0.5 0"/>
<feBlend mode="normal" in2="effect1_backgroundBlur_5109:2484" result="effect2_dropShadow_5109:2484"/>
<feBlend mode="normal" in="SourceGraphic" in2="effect2_dropShadow_5109:2484" result="shape"/>
</filter>
<linearGradient id="paint0_linear_5109:2484" x1="27.8041" y1="12.3093" x2="27.8041" y2="38.6615" gradientUnits="userSpaceOnUse">
<stop stop-color="#BC94FF"/>
<stop offset="1" stop-color="#9F66FF"/>
</linearGradient>
<linearGradient id="paint1_linear_5109:2484" x1="6.36082" y1="5.91752" x2="27.8041" y2="32.5154" gradientUnits="userSpaceOnUse">
<stop stop-color="white" stop-opacity="0.25"/>
<stop offset="1" stop-color="white" stop-opacity="0"/>
</linearGradient>
<linearGradient id="paint2_linear_5109:2484" x1="26.3163" y1="17.4781" x2="4.68426" y2="20.7232" gradientUnits="userSpaceOnUse">
<stop stop-color="white"/>
<stop offset="1" stop-color="white" stop-opacity="0.2"/>
</linearGradient>
<linearGradient id="paint3_linear_5109:2484" x1="11.0443" y1="17.2019" x2="12.0022" y2="22.6603" gradientUnits="userSpaceOnUse">
<stop stop-color="white" stop-opacity="0.25"/>
<stop offset="1" stop-color="white" stop-opacity="0"/>
</linearGradient>
</defs>
</svg>
