<svg width="69" height="69" viewBox="0 0 69 69" fill="none" xmlns="http://www.w3.org/2000/svg">
<path d="M49.7767 31.0723L48.5796 29.8757C48.1141 29.4103 47.8481 28.7788 47.8481 28.1156V26.4021C47.8481 23.6432 45.6036 21.4011 42.8436 21.4011H41.1311C40.4661 21.4011 39.8343 21.1335 39.3688 20.6682L38.155 19.4565C36.1932 17.512 33.0176 17.512 31.0723 19.4715L29.8752 20.6682C29.4097 21.1335 28.7779 21.4011 28.1129 21.4011H26.4004C23.6404 21.4011 21.3959 23.6432 21.3959 26.4021V28.0973C21.3959 28.7788 21.1299 29.4103 20.6644 29.8757L19.4507 31.0906C17.5054 33.0501 17.522 36.2262 19.4673 38.1691L20.6644 39.3491C21.1299 39.8311 21.3959 40.4627 21.3959 41.1292V42.8394C21.3959 45.5983 23.6404 47.8437 26.4004 47.8437H28.1129C28.7779 47.8437 29.4097 48.1079 29.8752 48.5733L31.0889 49.7882C32.0699 50.7522 33.3501 51.2325 34.6303 51.2325C35.9105 51.2325 37.1907 50.7522 38.1717 49.7699L39.3688 48.5733C39.8343 48.1079 40.4661 47.8437 41.1311 47.8437H42.8436C45.6036 47.8437 47.8481 45.5983 47.8481 42.8394V41.1292C47.8481 40.4627 48.1141 39.8311 48.5796 39.3658L49.7601 38.1857C49.7767 38.1691 49.7933 38.1542 49.81 38.1359C50.741 37.1902 51.2564 35.9254 51.2398 34.5958C51.2398 33.2662 50.7244 32.0031 49.7767 31.0723V31.0723Z" fill="url(#paint0_linear_5109:2331)"/>
<g opacity="0.5" filter="url(#filter0_f_5109:2331)">
<path d="M44.6542 32.2699L43.8616 31.4776C43.5534 31.1695 43.3773 30.7513 43.3773 30.3123V29.1778C43.3773 27.3511 41.8912 25.8667 40.0639 25.8667H38.9301C38.4897 25.8667 38.0714 25.6895 37.7632 25.3814L36.9596 24.5792C35.6607 23.2918 33.5582 23.2918 32.2702 24.5891L31.4777 25.3814C31.1695 25.6895 30.7512 25.8667 30.3108 25.8667H29.177C27.3497 25.8667 25.8636 27.3511 25.8636 29.1778V30.3002C25.8636 30.7513 25.6875 31.1695 25.3793 31.4776L24.5757 32.282C23.2878 33.5794 23.2988 35.6822 24.5867 36.9686L25.3793 37.7499C25.6875 38.069 25.8636 38.4871 25.8636 38.9284V40.0607C25.8636 41.8873 27.3497 43.374 29.177 43.374H30.3108C30.7512 43.374 31.1695 43.5489 31.4777 43.8571L32.2813 44.6614C32.9307 45.2997 33.7783 45.6177 34.6259 45.6177C35.4736 45.6177 36.3212 45.2997 36.9706 44.6493L37.7632 43.8571C38.0714 43.5489 38.4897 43.374 38.9301 43.374H40.0639C41.8912 43.374 43.3773 41.8873 43.3773 40.0607V38.9284C43.3773 38.4871 43.5534 38.069 43.8616 37.7609L44.6432 36.9796C44.6542 36.9686 44.6652 36.9587 44.6762 36.9466C45.2926 36.3204 45.6339 35.483 45.6229 34.6027C45.6229 33.7224 45.2816 32.8861 44.6542 32.2699V32.2699Z" fill="#E46800"/>
</g>
<g filter="url(#filter1_b_5109:2331)">
<mask id="path-3-outside-1_5109:2331" maskUnits="userSpaceOnUse" x="22.7666" y="22.7675" width="36" height="36" fill="black">
<rect fill="white" x="22.7666" y="22.7675" width="36" height="36"/>
<path d="M55.5433 36.8398L54.3462 35.6431C53.8807 35.1778 53.6147 34.5462 53.6147 33.8831V32.1695C53.6147 29.4106 51.3702 27.1686 48.6102 27.1686H46.8977C46.2327 27.1686 45.6009 26.901 45.1354 26.4356L43.9216 25.224C41.9598 23.2795 38.7842 23.2795 36.8389 25.239L35.6418 26.4356C35.1763 26.901 34.5445 27.1686 33.8795 27.1686H32.167C29.407 27.1686 27.1625 29.4106 27.1625 32.1695V33.8648C27.1625 34.5462 26.8965 35.1778 26.431 35.6431L25.2173 36.8581C23.272 38.8176 23.2886 41.9937 25.2339 43.9366L26.431 45.1166C26.8965 45.5986 27.1625 46.2301 27.1625 46.8966V48.6068C27.1625 51.3658 29.407 53.6111 32.167 53.6111H33.8795C34.5445 53.6111 35.1763 53.8754 35.6418 54.3408L36.8555 55.5557C37.8365 56.5197 39.1167 57 40.3969 57C41.6771 57 42.9573 56.5197 43.9383 55.5374L45.1354 54.3408C45.6009 53.8754 46.2327 53.6111 46.8977 53.6111H48.6102C51.3702 53.6111 53.6147 51.3658 53.6147 48.6068V46.8966C53.6147 46.2301 53.8807 45.5986 54.3462 45.1332L55.5267 43.9532C55.5433 43.9366 55.5599 43.9216 55.5766 43.9033C56.5076 42.9577 57.023 41.6929 57.0064 40.3633C57.0064 39.0336 56.491 37.7705 55.5433 36.8398V36.8398Z"/>
</mask>
<path d="M55.5433 36.8398L54.3462 35.6431C53.8807 35.1778 53.6147 34.5462 53.6147 33.8831V32.1695C53.6147 29.4106 51.3702 27.1686 48.6102 27.1686H46.8977C46.2327 27.1686 45.6009 26.901 45.1354 26.4356L43.9216 25.224C41.9598 23.2795 38.7842 23.2795 36.8389 25.239L35.6418 26.4356C35.1763 26.901 34.5445 27.1686 33.8795 27.1686H32.167C29.407 27.1686 27.1625 29.4106 27.1625 32.1695V33.8648C27.1625 34.5462 26.8965 35.1778 26.431 35.6431L25.2173 36.8581C23.272 38.8176 23.2886 41.9937 25.2339 43.9366L26.431 45.1166C26.8965 45.5986 27.1625 46.2301 27.1625 46.8966V48.6068C27.1625 51.3658 29.407 53.6111 32.167 53.6111H33.8795C34.5445 53.6111 35.1763 53.8754 35.6418 54.3408L36.8555 55.5557C37.8365 56.5197 39.1167 57 40.3969 57C41.6771 57 42.9573 56.5197 43.9383 55.5374L45.1354 54.3408C45.6009 53.8754 46.2327 53.6111 46.8977 53.6111H48.6102C51.3702 53.6111 53.6147 51.3658 53.6147 48.6068V46.8966C53.6147 46.2301 53.8807 45.5986 54.3462 45.1332L55.5267 43.9532C55.5433 43.9366 55.5599 43.9216 55.5766 43.9033C56.5076 42.9577 57.023 41.6929 57.0064 40.3633C57.0064 39.0336 56.491 37.7705 55.5433 36.8398V36.8398Z" fill="#FFCBB9" fill-opacity="0.35"/>
<path d="M54.3462 35.6431L55.0532 34.9359V34.9359L54.3462 35.6431ZM45.1354 26.4356L45.8423 25.7284L45.8419 25.7279L45.1354 26.4356ZM43.9216 25.224L44.6281 24.5163L44.6256 24.5138L43.9216 25.224ZM36.8389 25.239L37.5459 25.9462L37.5486 25.9435L36.8389 25.239ZM35.6418 26.4356L36.3488 27.1428L35.6418 26.4356ZM26.431 35.6431L25.724 34.9359L25.7235 34.9364L26.431 35.6431ZM25.2173 36.8581L24.5098 36.1513L24.5076 36.1536L25.2173 36.8581ZM25.2339 43.9366L24.5272 44.6441L24.5319 44.6487L25.2339 43.9366ZM26.431 45.1166L27.1502 44.4219C27.1446 44.416 27.1388 44.4102 27.133 44.4044L26.431 45.1166ZM35.6418 54.3408L36.3493 53.634L36.3488 53.6335L35.6418 54.3408ZM36.8555 55.5557L36.1481 56.2625L36.1546 56.2689L36.8555 55.5557ZM43.9383 55.5374L43.2313 54.8302L43.2307 54.8308L43.9383 55.5374ZM45.1354 54.3408L45.8423 55.048H45.8423L45.1354 54.3408ZM54.3462 45.1332L55.0532 45.8405L54.3462 45.1332ZM55.5267 43.9532L54.8197 43.246H54.8197L55.5267 43.9532ZM55.5766 43.9033L54.864 43.2018C54.8547 43.2112 54.8456 43.2208 54.8367 43.2305L55.5766 43.9033ZM57.0064 40.3633H56.0063L56.0065 40.3758L57.0064 40.3633ZM56.2503 36.1326L55.0532 34.9359L53.6393 36.3504L54.8363 37.547L56.2503 36.1326ZM55.0532 34.9359C54.7729 34.6557 54.6147 34.2775 54.6147 33.8831H52.6147C52.6147 34.8149 52.9885 35.6999 53.6393 36.3504L55.0532 34.9359ZM54.6147 33.8831V32.1695H52.6147V33.8831H54.6147ZM54.6147 32.1695C54.6147 28.8575 51.9217 26.1686 48.6102 26.1686V28.1686C50.8186 28.1686 52.6147 29.9637 52.6147 32.1695H54.6147ZM48.6102 26.1686H46.8977V28.1686H48.6102V26.1686ZM46.8977 26.1686C46.5025 26.1686 46.1237 26.0096 45.8423 25.7284L44.4284 27.1428C45.0781 27.7924 45.9629 28.1686 46.8977 28.1686V26.1686ZM45.8419 25.7279L44.6281 24.5163L43.2152 25.9317L44.4289 27.1433L45.8419 25.7279ZM44.6256 24.5138C42.2752 22.1841 38.4668 22.1797 36.1292 24.5344L37.5486 25.9435C39.1016 24.3792 41.6444 24.3748 43.2177 25.9342L44.6256 24.5138ZM36.1319 24.5317L34.9349 25.7284L36.3488 27.1428L37.5459 25.9462L36.1319 24.5317ZM34.9349 25.7284C34.6535 26.0096 34.2747 26.1686 33.8795 26.1686V28.1686C34.8143 28.1686 35.6991 27.7924 36.3488 27.1428L34.9349 25.7284ZM33.8795 26.1686H32.167V28.1686H33.8795V26.1686ZM32.167 26.1686C28.8555 26.1686 26.1625 28.8576 26.1625 32.1695H28.1625C28.1625 29.9637 29.9586 28.1686 32.167 28.1686V26.1686ZM26.1625 32.1695V33.8648H28.1625V32.1695H26.1625ZM26.1625 33.8648C26.1625 34.2814 26.0016 34.6584 25.724 34.9359L27.1379 36.3504C27.7914 35.6971 28.1625 34.811 28.1625 33.8648H26.1625ZM25.7235 34.9364L24.5098 36.1513L25.9247 37.5648L27.1384 36.3499L25.7235 34.9364ZM24.5076 36.1536C22.1726 38.5057 22.1935 42.3133 24.5272 44.6441L25.9406 43.229C24.3837 41.6741 24.3714 39.1295 25.9269 37.5626L24.5076 36.1536ZM24.5319 44.6487L25.7289 45.8288L27.133 44.4044L25.9359 43.2244L24.5319 44.6487ZM25.7117 45.8113C26.0054 46.1154 26.1625 46.501 26.1625 46.8966H28.1625C28.1625 45.9593 27.7876 45.0817 27.1502 44.4219L25.7117 45.8113ZM26.1625 46.8966V48.6068H28.1625V46.8966H26.1625ZM26.1625 48.6068C26.1625 51.918 28.8547 54.6111 32.167 54.6111V52.6111C29.9594 52.6111 28.1625 50.8136 28.1625 48.6068H26.1625ZM32.167 54.6111H33.8795V52.6111H32.167V54.6111ZM33.8795 54.6111C34.2781 54.6111 34.656 54.7692 34.9349 55.048L36.3488 53.6335C35.6966 52.9816 34.8109 52.6111 33.8795 52.6111V54.6111ZM34.9344 55.0475L36.1481 56.2624L37.563 54.8489L36.3493 53.634L34.9344 55.0475ZM36.1546 56.2689C37.3313 57.4252 38.8669 58 40.3969 58V56C39.3664 56 38.3417 55.6141 37.5565 54.8424L36.1546 56.2689ZM40.3969 58C41.928 58 43.4673 57.4242 44.6459 56.244L43.2307 54.8308C42.4474 55.6151 41.4263 56 40.3969 56V58ZM44.6453 56.2446L45.8423 55.048L44.4284 53.6335L43.2313 54.8302L44.6453 56.2446ZM45.8423 55.048C46.1212 54.7692 46.4991 54.6111 46.8977 54.6111V52.6111C45.9663 52.6111 45.0805 52.9816 44.4284 53.6335L45.8423 55.048ZM46.8977 54.6111H48.6102V52.6111H46.8977V54.6111ZM48.6102 54.6111C51.9225 54.6111 54.6147 51.918 54.6147 48.6068H52.6147C52.6147 50.8136 50.8178 52.6111 48.6102 52.6111V54.6111ZM54.6147 48.6068V46.8966H52.6147V48.6068H54.6147ZM54.6147 46.8966C54.6147 46.4981 54.7734 46.1202 55.0532 45.8405L53.6393 44.426C52.988 45.077 52.6147 45.9622 52.6147 46.8966H54.6147ZM55.0532 45.8405L56.2337 44.6604L54.8197 43.246L53.6393 44.426L55.0532 45.8405ZM56.2337 44.6604C56.2322 44.6619 56.2319 44.6622 56.2348 44.6593C56.2357 44.6585 56.2441 44.6504 56.2496 44.645C56.2634 44.6316 56.2882 44.6071 56.3164 44.5761L54.8367 43.2305C54.8483 43.2178 54.8565 43.21 54.8537 43.2127C54.8531 43.2134 54.8521 43.2143 54.8503 43.216C54.8491 43.2172 54.8459 43.2202 54.8435 43.2226C54.8381 43.2278 54.8295 43.2362 54.8197 43.246L56.2337 44.6604ZM56.2892 44.6049C57.4053 43.4713 58.0263 41.9503 58.0063 40.3507L56.0065 40.3758C56.0197 41.4355 55.61 42.444 54.864 43.2018L56.2892 44.6049ZM58.0064 40.3633C58.0064 38.7729 57.3885 37.2504 56.244 36.1263L54.8426 37.5533C55.5935 38.2907 56.0064 39.2943 56.0064 40.3633H58.0064Z" fill="url(#paint1_linear_5109:2331)" mask="url(#path-3-outside-1_5109:2331)"/>
</g>
<g filter="url(#filter2_bd_5109:2331)">
<mask id="path-5-inside-2_5109:2331" fill="white">
<path fill-rule="evenodd" clip-rule="evenodd" d="M37.1377 45.6815C36.8717 45.964 36.5059 46.1136 36.1069 46.1136C35.7245 46.1136 35.3587 45.964 35.0927 45.6815C34.5274 45.1164 34.5274 44.1857 35.0927 43.6206L43.6385 35.0778C44.2038 34.5144 45.1182 34.5144 45.6835 35.0778C46.2488 35.6429 46.2488 36.5753 45.6835 37.1404L37.1377 45.6815ZM44.6692 46.1137C43.8545 46.1137 43.2061 45.4655 43.2061 44.6511C43.2061 43.855 43.8545 43.2052 44.6692 43.2052C45.4673 43.2052 46.1157 43.855 46.1157 44.6511C46.1157 45.4655 45.4673 46.1137 44.6692 46.1137ZM37.5697 36.1086C37.5697 35.3108 36.9213 34.6626 36.1233 34.6626C35.3252 34.6626 34.6602 35.3108 34.6602 36.1086C34.6602 36.9246 35.3252 37.5711 36.1233 37.5711C36.9213 37.5711 37.5697 36.9246 37.5697 36.1086Z"/>
</mask>
<path fill-rule="evenodd" clip-rule="evenodd" d="M37.1377 45.6815C36.8717 45.964 36.5059 46.1136 36.1069 46.1136C35.7245 46.1136 35.3587 45.964 35.0927 45.6815C34.5274 45.1164 34.5274 44.1857 35.0927 43.6206L43.6385 35.0778C44.2038 34.5144 45.1182 34.5144 45.6835 35.0778C46.2488 35.6429 46.2488 36.5753 45.6835 37.1404L37.1377 45.6815ZM44.6692 46.1137C43.8545 46.1137 43.2061 45.4655 43.2061 44.6511C43.2061 43.855 43.8545 43.2052 44.6692 43.2052C45.4673 43.2052 46.1157 43.855 46.1157 44.6511C46.1157 45.4655 45.4673 46.1137 44.6692 46.1137ZM37.5697 36.1086C37.5697 35.3108 36.9213 34.6626 36.1233 34.6626C35.3252 34.6626 34.6602 35.3108 34.6602 36.1086C34.6602 36.9246 35.3252 37.5711 36.1233 37.5711C36.9213 37.5711 37.5697 36.9246 37.5697 36.1086Z" fill="url(#paint2_linear_5109:2331)"/>
<path d="M37.1377 45.6815L36.8548 45.3984L36.8465 45.4073L37.1377 45.6815ZM35.0927 45.6815L35.384 45.4071L35.3755 45.3986L35.0927 45.6815ZM35.0927 43.6206L34.8099 43.3377H34.8099L35.0927 43.6206ZM43.6385 35.0778L43.3561 34.7945L43.3557 34.7949L43.6385 35.0778ZM45.6835 35.0778L45.9663 34.7949L45.9659 34.7945L45.6835 35.0778ZM45.6835 37.1404L45.9663 37.4233L45.9663 37.4233L45.6835 37.1404ZM36.1069 46.5136C36.6084 46.5136 37.0822 46.3239 37.4289 45.9557L36.8465 45.4073C36.6612 45.6041 36.4034 45.7136 36.1069 45.7136V46.5136ZM34.8015 45.9557C35.1465 46.3222 35.6194 46.5136 36.1069 46.5136V45.7136C35.8296 45.7136 35.5709 45.6058 35.3839 45.4073L34.8015 45.9557ZM34.8099 43.3377C34.0883 44.059 34.0883 45.2431 34.8099 45.9644L35.3755 45.3986C34.9665 44.9897 34.9665 44.3123 35.3755 43.9035L34.8099 43.3377ZM43.3557 34.7949L34.8099 43.3377L35.3755 43.9035L43.9213 35.3607L43.3557 34.7949ZM45.9659 34.7945C45.2445 34.0755 44.0775 34.0755 43.3561 34.7945L43.9209 35.3611C44.3301 34.9533 44.992 34.9533 45.4012 35.3611L45.9659 34.7945ZM45.9663 37.4233C46.6879 36.702 46.6879 35.5163 45.9663 34.7949L45.4007 35.3607C45.8097 35.7696 45.8097 36.4486 45.4007 36.8575L45.9663 37.4233ZM37.4205 45.9644L45.9663 37.4233L45.4008 36.8575L36.8549 45.3985L37.4205 45.9644ZM42.8061 44.6511C42.8061 45.6866 43.6338 46.5137 44.6692 46.5137V45.7137C44.0753 45.7137 43.6061 45.2445 43.6061 44.6511H42.8061ZM44.6692 42.8052C43.6365 42.8052 42.8061 43.6313 42.8061 44.6511H43.6061C43.6061 44.0787 44.0726 43.6052 44.6692 43.6052V42.8052ZM46.5157 44.6511C46.5157 43.6343 45.6884 42.8052 44.6692 42.8052V43.6052C45.2462 43.6052 45.7157 44.0758 45.7157 44.6511H46.5157ZM44.6692 46.5137C45.691 46.5137 46.5157 45.6836 46.5157 44.6511H45.7157C45.7157 45.2474 45.2435 45.7137 44.6692 45.7137V46.5137ZM36.1233 35.0626C36.7005 35.0626 37.1697 35.5318 37.1697 36.1086H37.9697C37.9697 35.0897 37.1421 34.2626 36.1233 34.2626V35.0626ZM35.0602 36.1086C35.0602 35.5378 35.54 35.0626 36.1233 35.0626V34.2626C35.1104 34.2626 34.2602 35.0838 34.2602 36.1086H35.0602ZM36.1233 37.1711C35.5427 37.1711 35.0602 36.7003 35.0602 36.1086H34.2602C34.2602 37.1489 35.1077 37.9711 36.1233 37.9711V37.1711ZM37.1697 36.1086C37.1697 36.7062 36.6978 37.1711 36.1233 37.1711V37.9711C37.1448 37.9711 37.9697 37.143 37.9697 36.1086H37.1697Z" fill="url(#paint3_linear_5109:2331)" mask="url(#path-5-inside-2_5109:2331)"/>
</g>
<defs>
<filter id="filter0_f_5109:2331" x="0.615234" y="0.614868" width="68.0078" height="68.0028" filterUnits="userSpaceOnUse" color-interpolation-filters="sRGB">
<feFlood flood-opacity="0" result="BackgroundImageFix"/>
<feBlend mode="normal" in="SourceGraphic" in2="BackgroundImageFix" result="shape"/>
<feGaussianBlur stdDeviation="11.5" result="effect1_foregroundBlur_5109:2331"/>
</filter>
<filter id="filter1_b_5109:2331" x="-1.2334" y="-1.23254" width="83.2402" height="83.2325" filterUnits="userSpaceOnUse" color-interpolation-filters="sRGB">
<feFlood flood-opacity="0" result="BackgroundImageFix"/>
<feGaussianBlur in="BackgroundImage" stdDeviation="12"/>
<feComposite in2="SourceAlpha" operator="in" result="effect1_backgroundBlur_5109:2331"/>
<feBlend mode="normal" in="SourceGraphic" in2="effect1_backgroundBlur_5109:2331" result="shape"/>
</filter>
<filter id="filter2_bd_5109:2331" x="19.6602" y="19.6553" width="41.4551" height="41.4584" filterUnits="userSpaceOnUse" color-interpolation-filters="sRGB">
<feFlood flood-opacity="0" result="BackgroundImageFix"/>
<feGaussianBlur in="BackgroundImage" stdDeviation="7.5"/>
<feComposite in2="SourceAlpha" operator="in" result="effect1_backgroundBlur_5109:2331"/>
<feColorMatrix in="SourceAlpha" type="matrix" values="0 0 0 0 0 0 0 0 0 0 0 0 0 0 0 0 0 0 127 0" result="hardAlpha"/>
<feOffset dx="5" dy="5"/>
<feGaussianBlur stdDeviation="5"/>
<feColorMatrix type="matrix" values="0 0 0 0 1 0 0 0 0 0.580392 0 0 0 0 0.247059 0 0 0 0.5 0"/>
<feBlend mode="normal" in2="effect1_backgroundBlur_5109:2331" result="effect2_dropShadow_5109:2331"/>
<feBlend mode="normal" in="SourceGraphic" in2="effect2_dropShadow_5109:2331" result="shape"/>
</filter>
<linearGradient id="paint0_linear_5109:2331" x1="34.6201" y1="18" x2="34.6201" y2="51.2325" gradientUnits="userSpaceOnUse">
<stop stop-color="#FFB37F"/>
<stop offset="1" stop-color="#FF7B0D"/>
</linearGradient>
<linearGradient id="paint1_linear_5109:2331" x1="23.6696" y1="23.5415" x2="50.2324" y2="53.9173" gradientUnits="userSpaceOnUse">
<stop stop-color="white" stop-opacity="0.4"/>
<stop offset="1" stop-color="white" stop-opacity="0"/>
</linearGradient>
<linearGradient id="paint2_linear_5109:2331" x1="45.3035" y1="36.7244" x2="32.5431" y2="37.1404" gradientUnits="userSpaceOnUse">
<stop stop-color="white"/>
<stop offset="1" stop-color="white" stop-opacity="0.2"/>
</linearGradient>
<linearGradient id="paint3_linear_5109:2331" x1="36.4837" y1="35.9902" x2="43.7933" y2="45.0411" gradientUnits="userSpaceOnUse">
<stop stop-color="white" stop-opacity="0.25"/>
<stop offset="1" stop-color="white" stop-opacity="0"/>
</linearGradient>
</defs>
</svg>
