<svg width="85" height="86" viewBox="0 0 85 86" fill="none" xmlns="http://www.w3.org/2000/svg">
<rect x="84.2929" y="43.0043" width="59" height="59" transform="rotate(134.654 84.2929 43.0043)" fill="white" stroke="#DFE5F2"/>
<path d="M34.0009 30C35.7615 30 37.3302 30.8013 38.7183 32.4148C40.1065 34.0175 40.7949 36.1399 40.7949 38.7822C40.7949 41.0237 39.5309 44.4565 37.0142 49.0696C34.4862 53.6935 32.6128 56 31.3826 56C30.6942 56 30.3444 55.6535 30.3444 54.9713C30.3444 54.7872 31.0666 53.2928 32.4999 50.4773C33.9445 47.6618 34.6555 45.4527 34.6555 43.8717C34.6555 42.6481 33.8429 41.641 32.2065 40.8613C30.5814 40.0816 29.4866 39.2695 28.9449 38.4248C28.4032 37.5802 28.1324 36.6597 28.1324 35.6851C28.1324 33.92 28.6741 32.5231 29.7575 31.516C30.8748 30.5089 32.2742 30 34.0009 30Z" fill="#19BBCD"/>
<path d="M50.206 30C51.9666 30 53.5466 30.8013 54.9234 32.4148C56.3116 34.0175 57 36.1399 57 38.7822C57 41.0237 55.736 44.4565 53.2193 49.0696C50.7026 53.6935 48.8179 56 47.5991 56C46.9106 56 46.5608 55.6535 46.5608 54.9713C46.5608 54.7872 47.283 53.2928 48.7163 50.4773C50.1609 47.6618 50.8719 45.4527 50.8719 43.8717C50.8719 42.6481 50.0593 41.641 48.4229 40.8613C46.7978 40.0816 45.7031 39.2695 45.1613 38.4248C44.6196 37.5802 44.3488 36.6597 44.3488 35.6851C44.3488 33.92 44.8905 32.5231 45.9739 31.516C47.0573 30.5089 48.4793 30 50.206 30Z" fill="#19BBCD"/>
</svg>
