<svg width="82" height="49" viewBox="0 0 82 49" fill="none" xmlns="http://www.w3.org/2000/svg">
<path fill-rule="evenodd" clip-rule="evenodd" d="M81 41H82C82 18.3563 63.6437 0 41 0C18.3563 0 0 18.3563 0 41H1C23.5 41 18.9086 41 41 41C63.0914 41 55.5 41 81 41Z" fill="white"/>
<path fill-rule="evenodd" clip-rule="evenodd" d="M81 41H82C82 18.3563 63.6437 0 41 0C18.3563 0 0 18.3563 0 41H1C1 18.9086 18.9086 1 41 1C63.0914 1 81 18.9086 81 41Z" fill="#DFE5F2"/>
<path d="M32.8685 23C34.6291 23 36.1978 23.8013 37.5859 25.4148C38.9741 27.0175 39.6625 29.1399 39.6625 31.7822C39.6625 34.0237 38.3985 37.4565 35.8818 42.0696C33.3538 46.6935 31.4804 49 30.2502 49C29.5618 49 29.212 48.6535 29.212 47.9713C29.212 47.7872 29.9342 46.2928 31.3675 43.4773C32.8121 40.6618 33.5231 38.4527 33.5231 36.8717C33.5231 35.6481 32.7105 34.641 31.0741 33.8613C29.449 33.0816 28.3542 32.2695 27.8125 31.4248C27.2708 30.5802 27 29.6597 27 28.6851C27 26.92 27.5417 25.5231 28.6251 24.516C29.7424 23.5089 31.1418 23 32.8685 23Z" fill="#19BBCD"/>
<path d="M49.073 23C50.8336 23 52.4136 23.8013 53.7904 25.4148C55.1786 27.0175 55.867 29.1399 55.867 31.7822C55.867 34.0237 54.603 37.4565 52.0863 42.0696C49.5696 46.6935 47.6849 49 46.4661 49C45.7776 49 45.4278 48.6535 45.4278 47.9713C45.4278 47.7872 46.15 46.2928 47.5833 43.4773C49.0279 40.6618 49.7389 38.4527 49.7389 36.8717C49.7389 35.6481 48.9263 34.641 47.2899 33.8613C45.6648 33.0816 44.5701 32.2695 44.0283 31.4248C43.4866 30.5802 43.2158 29.6597 43.2158 28.6851C43.2158 26.92 43.7575 25.5231 44.8409 24.516C45.9243 23.5089 47.3463 23 49.073 23Z" fill="#19BBCD"/>
</svg>
