<svg width="77" height="70" viewBox="0 0 77 70" fill="none" xmlns="http://www.w3.org/2000/svg">
<path d="M61.3476 69.3495C56.6517 69.3495 52.4675 67.2121 48.7649 62.9084C45.0623 58.6337 43.2261 52.9725 43.2261 45.9249C43.2261 39.946 46.5975 30.7899 53.3103 18.4855C60.0532 6.15218 65.0502 0 68.3313 0C70.1676 0 71.1007 0.924266 71.1007 2.74393C71.1007 3.23495 69.1742 7.22091 65.3512 14.7306C61.4981 22.2404 59.6017 28.1326 59.6017 32.3496C59.6017 35.6134 61.769 38.2996 66.1339 40.3792C70.4686 42.4588 73.3885 44.6251 74.8334 46.878C76.2783 49.131 77.0007 51.5861 77.0007 54.1856C77.0007 58.8936 75.5558 62.6196 72.666 65.3058C69.6859 67.9919 65.9532 69.3495 61.3476 69.3495Z" fill="#20396D"/>
<path d="M18.1215 69.3495C13.4255 69.3495 9.21123 67.2121 5.53877 62.9084C1.83622 58.6337 0 52.9725 0 45.9249C0 39.946 3.37143 30.7899 10.0842 18.4855C16.797 6.15218 21.824 0 25.075 0C26.9113 0 27.8444 0.924266 27.8444 2.74393C27.8444 3.23495 25.9179 7.22091 22.095 14.7306C18.2419 22.2404 16.3454 28.1326 16.3454 32.3496C16.3454 35.6134 18.5128 38.2996 22.8776 40.3792C27.2123 42.4588 30.1322 44.6251 31.5771 46.878C33.022 49.131 33.7444 51.5861 33.7444 54.1856C33.7444 58.8936 32.2995 62.6196 29.4097 65.3058C26.5199 67.9919 22.7271 69.3495 18.1215 69.3495Z" fill="#20396D"/>
</svg>
