<svg width="152" height="152" viewBox="0 0 152 152" fill="none" xmlns="http://www.w3.org/2000/svg">
<path d="M140.89 110.214C126.01 129.027 113.981 122.577 96.5527 133.603C86.6216 139.884 79.7546 152.972 65.7855 151.943C55.2793 151.167 45.7259 143.119 41.0164 133.999C38.817 129.739 39.1192 123.315 36.7224 119.372C31.7737 111.235 23.6054 109.248 15.7856 104.027C6.7737 98.0034 -0.550842 90.2719 0.0325928 77.5801C0.599243 65.2003 10.3583 56.427 13.7834 44.8951C17.368 32.8233 13.5148 23.3582 25.6622 14.897C35.3247 8.16931 46.1793 12.1426 56.2238 9.66669C81.8995 3.34397 95.9273 -10.9887 115.223 15.0235C123.295 25.9058 126.942 39.6775 135.614 49.5348C151.027 67.0689 160.631 85.2567 140.89 110.214Z" fill="url(#paint0_linear_5120:5758)"/>
<defs>
<linearGradient id="paint0_linear_5120:5758" x1="-1.80095" y1="1.23715e-05" x2="142.455" y2="146.237" gradientUnits="userSpaceOnUse">
<stop stop-color="#ECF1FF" stop-opacity="0.62"/>
<stop offset="1" stop-color="#ECF1FF" stop-opacity="0"/>
</linearGradient>
</defs>
</svg>
