<svg width="65" height="65" viewBox="0 0 65 65" fill="none" xmlns="http://www.w3.org/2000/svg">
<circle cx="32.5" cy="32.5" r="32.5" fill="#4776E7"/>
<path d="M45.5 34.25V29.25C45.5 23 43 20.5 36.75 20.5H29.25C23 20.5 20.5 23 20.5 29.25V36.75C20.5 43 23 45.5 29.25 45.5H34.25" stroke="white" stroke-width="2" stroke-linecap="round" stroke-linejoin="round"/>
<path d="M27.1621 36.1125L30.1371 32.25C30.5621 31.7 31.3496 31.6 31.8996 32.025L34.1871 33.825C34.7371 34.25 35.5246 34.15 35.9496 33.6125L38.8371 29.8875" stroke="white" stroke-width="2" stroke-linecap="round" stroke-linejoin="round"/>
<path d="M42.3505 37.775L42.7005 38.4875C42.8755 38.8375 43.313 39.1625 43.7005 39.2375L44.1755 39.3125C45.6005 39.55 45.938 40.6 44.913 41.6375L44.4755 42.075C44.188 42.375 44.0255 42.95 44.113 43.35L44.1755 43.6125C44.563 45.3375 43.6505 46 42.1505 45.1L41.8255 44.9125C41.438 44.6875 40.813 44.6875 40.4255 44.9125L40.1005 45.1C38.588 46.0125 37.6755 45.3375 38.0755 43.6125L38.138 43.35C38.2255 42.95 38.063 42.375 37.7755 42.075L37.338 41.6375C36.313 40.6 36.6505 39.55 38.0755 39.3125L38.5505 39.2375C38.9255 39.175 39.3755 38.8375 39.5505 38.4875L39.9005 37.775C40.5755 36.4125 41.6755 36.4125 42.3505 37.775Z" stroke="white" stroke-width="1.5" stroke-linecap="round" stroke-linejoin="round"/>
</svg>
