<svg width="65" height="65" viewBox="0 0 65 65" fill="none" xmlns="http://www.w3.org/2000/svg">
<circle cx="32.5" cy="32.5" r="32.5" fill="#FF5186"/>
<path d="M40.5 41.575H39.55C38.55 41.575 37.6 41.9625 36.9 42.6625L34.7625 44.7751C33.7875 45.7376 32.2 45.7376 31.225 44.7751L29.0875 42.6625C28.3875 41.9625 27.425 41.575 26.4375 41.575H25.5C23.425 41.575 21.75 39.9125 21.75 37.8625V24.225C21.75 22.175 23.425 20.5125 25.5 20.5125H40.5C42.575 20.5125 44.25 22.175 44.25 24.225V37.8625C44.25 39.9 42.575 41.575 40.5 41.575Z" stroke="white" stroke-width="2" stroke-miterlimit="10" stroke-linecap="round" stroke-linejoin="round"/>
<path d="M26.75 29.45C26.75 28.2875 27.7 27.3375 28.8625 27.3375C30.025 27.3375 30.975 28.2875 30.975 29.45C30.975 31.8 27.6375 32.05 26.9 34.2875C26.75 34.75 27.1375 35.2125 27.625 35.2125H30.975" stroke="white" stroke-width="2" stroke-linecap="round" stroke-linejoin="round"/>
<path d="M38.0492 35.2V28.0625C38.0492 27.7375 37.8367 27.45 37.5242 27.3625C37.2117 27.275 36.8742 27.4 36.6992 27.675C35.7992 29.125 34.8242 30.775 33.9742 32.225C33.8367 32.4625 33.8367 32.775 33.9742 33.0125C34.1117 33.25 34.3742 33.3999 34.6617 33.3999H39.2492" stroke="white" stroke-width="2" stroke-linecap="round" stroke-linejoin="round"/>
</svg>
