<svg width="65" height="65" viewBox="0 0 65 65" fill="none" xmlns="http://www.w3.org/2000/svg">
<circle cx="32.5" cy="32.5" r="32.5" fill="#21D3A0"/>
<path d="M29.5629 21.1625L22.0379 26.075C19.6254 27.65 19.6254 31.175 22.0379 32.75L29.5629 37.6625C30.9129 38.55 33.1379 38.55 34.4879 37.6625L41.9754 32.75C44.3754 31.175 44.3754 27.6625 41.9754 26.0875L34.4879 21.175C33.1379 20.275 30.9129 20.275 29.5629 21.1625Z" stroke="white" stroke-width="2" stroke-linecap="round" stroke-linejoin="round"/>
<path d="M24.0379 34.35L24.0254 40.2125C24.0254 41.8 25.2504 43.5 26.7504 44L30.7379 45.325C31.4254 45.55 32.5629 45.55 33.2629 45.325L37.2504 44C38.7504 43.5 39.9754 41.8 39.9754 40.2125V34.4125" stroke="white" stroke-width="2" stroke-linecap="round" stroke-linejoin="round"/>
<path d="M43.75 36.75V29.25" stroke="white" stroke-width="1.5" stroke-linecap="round" stroke-linejoin="round"/>
</svg>
